<svg xmlns="http://www.w3.org/2000/svg" width="340" height="237" viewBox="0 0 340 237">
  <defs>
    <radialGradient id="emptygrid_nodata-a" cx="50.615%" cy="0%" r="100%" fx="50.615%" fy="0%" gradientTransform="matrix(0 1 -.45652 0 .506 -.506)">
      <stop offset="0%" stop-color="#F1F2F5"/>
      <stop offset="100%" stop-color="#F3FAFF" stop-opacity="0"/>
    </radialGradient>
    <linearGradient id="emptygrid_nodata-b" x1="0%" x2="100%" y1="50%" y2="50%">
      <stop offset="0%" stop-color="#B0B0B0"/>
      <stop offset="100%" stop-color="#DDD" stop-opacity=".32"/>
    </linearGradient>
    <linearGradient id="emptygrid_nodata-c" x1="48.002%" x2="53.674%" y1="15.143%" y2="71.843%">
      <stop offset="0%" stop-color="#CCCED3"/>
      <stop offset="100%" stop-color="#9EA0A5"/>
    </linearGradient>
    <linearGradient id="emptygrid_nodata-d" x1="49.4%" x2="21.407%" y1="10.725%" y2="67.451%">
      <stop offset="0%" stop-color="#67696F"/>
      <stop offset="100%" stop-color="#9EA0A5"/>
    </linearGradient>
  </defs>
  <g fill="none" fill-rule="evenodd" transform="translate(-4 -1)">
    <rect width="357" height="29" y="209" fill="url(#emptygrid_nodata-a)"/>
    <g transform="translate(77.943 50.278)">
      <path fill="#F1F2F5" d="M1.51117836 19.6453186L198.719954 19.6453186C199.554554 19.6453186 200.231132 20.3218962 200.231132 21.156497L200.231132 111.071609C200.231132 111.90621 199.554554 112.582787 198.719954 112.582787L1.51117836 112.582787C.676577595 112.582787-4.33868298e-15 111.90621 0 111.071609L0 21.156497C-1.02209115e-16 20.3218962.676577595 19.6453186 1.51117836 19.6453186zM1.51117836.732553888L198.719954.732553888C199.554554.732553888 200.231132 1.40913148 200.231132 2.24373224L200.231132 15.0887483C200.231132 15.923349 199.554554 16.5999266 198.719954 16.5999266L1.51117836 16.5999266C.676577595 16.5999266-3.44881601e-15 15.923349 0 15.0887483L0 2.24373224C-1.02209115e-16 1.40913148.676577595.732553888 1.51117836.732553888z"/>
      <path fill="#FFF" fill-rule="nonzero" stroke="#FFF" stroke-width=".756" d="M163.622779,77.380992 C163.828564,77.3046138 164.058239,77.1510248 164.331976,76.922955 L163.808634,76.3807492 C163.579922,76.6362931 163.42241,76.8536407 163.338759,77.05162 C163.261278,76.8614568 163.117788,76.6603904 162.914131,76.4361619 L162.397233,76.9841854 C162.640356,77.1803548 162.852321,77.315441 163.047148,77.3843163 C162.840001,77.4558477 162.610727,77.6000764 162.343415,77.8132519 L162.85693,78.3644845 C163.090787,78.1104268 163.251784,77.8913487 163.336319,77.6892672 C163.412796,77.8755962 163.552646,78.0750198 163.750868,78.3005607 L164.264455,77.7513015 C164.027918,77.570018 163.817501,77.4448129 163.622779,77.380992 Z" transform="rotate(134 163.335 77.37)"/>
    </g>
    <g fill="#CCCED3" transform="translate(35.604)">
      <path fill-rule="nonzero" d="M151.899627 36.3041741C151.827276 36.2582917 150.902646 36.5345673 149.56998 36.4330284 148.23729 36.3315019 147.59835 35.5228903 147.058275 35.5930464 146.518201 35.6632024 145.707956 36.8112691 145.662615 36.9405981 145.617276 37.0694524 146.360546 39.1449404 146.360546 39.2097924 146.360546 39.274222 144.375278 38.4258957 144.112395 38.4624952 143.849524 38.4995921 142.879548 39.7540366 142.88871 39.9750831 142.897874 40.1966794 143.940193 44.0059018 143.940193 44.0059018 143.940193 44.0059018 143.31509 44.0244503 142.635038 43.8399483 141.95495 43.6554388 140.549383 43.115593 140.522959 43.111207 140.468455 43.101933 139.770513 43.4616701 139.679844 43.5910117 139.589164 43.7198659 140.504635 44.3197529 141.68351 45.1500831 142.861854 45.9803507 144.493606 46.1736446 144.647953 46.1736446 144.8023 46.1736446 145.690756 45.6757714 145.808442 45.5098178 145.926128 45.3438643 146.062151 45.3160366 146.01681 44.6517225 145.97147 43.9874084 145.382544 41.2759212 145.382544 41.2481811 145.382544 41.2203585 146.116654 41.5713038 146.425347 41.718714 146.733559 41.8661241 147.631177 42.1887596 147.812491 42.1614318 147.993854 42.1336092 149.18136 40.6947026 149.18136 40.6023604 149.18136 40.5101081 148.537932 38.2873074 148.537932 38.2873074 148.537932 38.2873074 149.571573 38.2594848 150.278715 38.1306256 150.985821 38.0017713 152.0011 37.5126825 152.019498 37.4204277 152.037897 37.328173 151.974159 36.3504952 151.90181 36.3046115L151.899627 36.3041741zM32.7754828 63.0049167C32.6772931 62.94374 31.4224379 63.3121076 29.61382 63.1767223 27.8051686 63.0413537 26.9380355 61.9632049 26.2050775 62.0567463 25.4721195 62.1502877 24.3725014 63.6810432 24.3109674 63.853482 24.249435 64.0252877 25.2581591 66.792605 25.2581591 66.8790743 25.2581591 66.9649805 22.5638667 65.8338788 22.2070967 65.8826781 21.8503434 65.9321406 20.5339475 67.6047333 20.5463817 67.899462 20.558819 68.1949238 21.9733948 73.273887 21.9733948 73.273887 21.9733948 73.273887 21.1250395 73.2986182 20.2021129 73.0526155 19.2791359 72.8066029 17.3715809 72.0868085 17.3357196 72.0809606 17.2617497 72.0685951 16.3145429 72.5482446 16.1914916 72.7207001 16.0684269 72.8925057 17.3108513 73.692355 18.9107528 74.7994619 20.5099338 75.9064855 22.7244551 76.1642107 22.9339256 76.1642107 23.143396 76.1642107 24.349158 75.5003797 24.508875 75.2791083 24.668592 75.0578368 24.8531941 75.0207333 24.7916601 74.1349812 24.7301277 73.2492291 23.9308707 69.6339128 23.9308707 69.5969259 23.9308707 69.5598291 24.9271623 70.0277563 25.3461032 70.2243032 25.7643905 70.42085 26.9825866 70.8510306 27.2286557 70.8145936 27.4747919 70.7774967 29.086407 68.8589546 29.086407 68.7358317 29.086407 68.6128287 28.2131835 65.6490944 28.2131835 65.6490944 28.2131835 65.6490944 29.6159818 65.6119976 30.5756747 65.4401853 31.5353174 65.2683796 32.913197 64.6162612 32.9381659 64.4932548 32.9631348 64.3702485 32.8766336 63.0666781 32.7784456 63.0054998L32.7754828 63.0049167z"/>
      <path fill-rule="nonzero" d="M266.235536,61.745283 L259.330189,56.9516557 L267.268868,53.8066038 L266.235536,61.745283 Z M262.851916,57.3924655 L265.154977,58.9915586 L265.498142,56.3453322 L262.851916,57.3924655 Z" transform="rotate(-173 263.3 57.776)"/>
      <path fill-rule="nonzero" d="M252.579305 118.475168L245.957337 127.324588 241.112324 117.621758 252.579305 118.475168zM246.374809 122.987855L248.354302 120.339231 244.92896 120.085182 246.374809 122.987855zM102.431174 32.9425125L97.334022 24.1217578 107.918928 24.9000895 102.431174 32.9425125zM100.998961 26.367158L102.525547 29.0053974 104.164039 26.6026263 100.998961 26.367158z"/>
      <circle cx="239.042" cy="5.292" r="3.528" transform="rotate(43 239.042 5.292)"/>
      <circle cx="13.231" cy="31.755" r="2.646" transform="rotate(153 13.231 31.755)"/>
      <path fill-rule="nonzero" d="M285.075441,141.390394 C284.992755,141.336865 283.936035,141.659186 282.412988,141.540724 C280.889913,141.422277 280.159696,140.478897 279.542468,140.560745 C278.92524,140.642594 277.999246,141.982005 277.947428,142.132889 C277.895611,142.283219 278.745063,144.704622 278.745063,144.780282 C278.745063,144.85545 276.476185,143.865736 276.175747,143.908436 C275.875323,143.951715 274.76678,145.415234 274.77725,145.673122 C274.787724,145.931651 275.978946,150.375743 275.978946,150.375743 C275.978946,150.375743 275.264541,150.397383 274.48734,150.182131 C273.710096,149.96687 272.103734,149.33705 272.073535,149.331933 C272.011245,149.321113 271.213597,149.740806 271.109975,149.891705 C271.006341,150.042035 272.052593,150.741903 273.399879,151.710622 C274.746557,152.679267 276.611418,152.904777 276.787814,152.904777 C276.96421,152.904777 277.979588,152.323925 278.114087,152.130312 C278.248585,151.9367 278.40404,151.904234 278.352222,151.129201 C278.300405,150.354168 277.627346,147.190766 277.627346,147.158403 C277.627346,147.125943 278.466329,147.535379 278.819121,147.707358 C279.171363,147.879336 280.197212,148.255744 280.404429,148.223862 C280.611701,148.191402 281.968851,146.512678 281.968851,146.404945 C281.968851,146.297317 281.233505,143.70405 281.233505,143.70405 C281.233505,143.70405 282.414808,143.67159 283.222971,143.521254 C284.031091,143.370925 285.191411,142.800321 285.212437,142.69269 C285.233464,142.58506 285.16062,141.444436 285.077936,141.390905 L285.075441,141.390394 Z"/>
      <circle cx="5.292" cy="14.995" r="3.528" transform="rotate(43 5.292 14.995)"/>
    </g>
    <rect width="186.118" height="6.175" x="85.882" y="81.098" fill="url(#emptygrid_nodata-b)" rx=".882" transform="rotate(-2 178.94 84.185)"/>
    <g transform="translate(4.731 67)">
      <g transform="translate(0 .257)">
        <ellipse cx="41.071" cy="154.583" fill="#000" fill-opacity=".04" rx="41.071" ry="4.72"/>
        <g transform="matrix(-1 0 0 1 86.977 0)">
          <polygon fill="#CCCED3" points="50.392 148.514 55.914 148.514 56.604 151.211 51.773 151.211"/>
          <polygon fill="#CCCED3" points="31.064 147.84 35.896 147.84 35.896 152.56 31.064 152.56"/>
          <g transform="matrix(-1 0 0 1 69.897 0)">
            <path fill="url(#emptygrid_nodata-c)" d="M18.1243504,80.6198472 L16.0535288,85.1064814 C27.0979106,109.533712 32.8501928,121.747327 33.3103754,121.747327 C33.7705579,121.747327 33.0802841,130.720595 31.2395538,148.667132 L39.3438552,148.667132 L42.9742094,123.990644 C43.434392,119.50401 42.9742094,116.762178 41.5936617,115.765148 C40.7481483,115.154519 41.2121596,107.965685 36.0714708,97.8186115 C33.9028124,93.5379523 30.2213518,84.8139414 25.027089,71.6465789 L18.1243504,80.6198472 Z"/>
            <path fill="#CCCED3" d="M22.5228396,10.9822072 C22.5228396,13.2297959 22.7529309,14.803108 23.2131135,15.7021435 C23.6732961,16.6011789 23.4432048,17.2754556 22.5228396,17.7249733 C21.4312438,19.9588796 20.4252633,21.5253504 19.5048981,22.4243859 C18.584533,23.3234214 16.8199698,23.7729391 14.2112087,23.7729391 L17.4340765,31.8642585 L5.26599309,31.8642585 L8.90051923,26.3438467 L8.90051923,23.7729391 C5.55713665,21.9885506 4.34562794,18.3992499 5.26599309,13.005037 C6.64654081,4.91371761 10.7313878,3.97638794 14.2395533,3.56516438 C16.1741252,3.33839584 19.753509,3.38440785 22.2659936,6.91602376 C22.6159621,7.40794897 22.7015775,8.76334343 22.5228396,10.9822072 Z"/>
            <path fill="#C9CBD0" d="M5.009147,78.683328 C5.009147,83.6684771 7.07996859,90.3984283 11.2216118,98.8731818 C15.3632549,107.347935 18.3215715,115.324174 20.0965614,122.801897 L11.2216118,148.226158 L18.7160137,148.97393 L20.0965614,148.97393 L32.5214909,125.045214 C32.1270487,123.051155 31.4696451,121.306353 30.5492799,119.810808 C29.1687322,117.567491 28.1384931,105.71983 25.3722259,96.6298647 C22.6059587,87.539899 18.0257398,80.9266451 18.7160137,80.9266451 C19.1761963,80.9266451 21.0169266,79.1818429 24.2382046,75.6922386 L5.009147,78.683328 Z"/>
            <path fill="#CCCED3" d="M40.0547776,33.0398343 C45.244752,21.8345738 56.0250311,20.3032754 57.2796209,17.1669281 C57.6426581,16.2593717 57.9137196,13.5943384 59.7189724,13.2001026 C61.0018904,12.9199357 61.5242253,12.8058669 61.6381059,13.4678201 C61.8340421,14.6067371 65.1538401,14.1653706 65.2162847,16.1205264 C65.2214055,16.2820851 64.2728856,16.6305458 64.1266426,17.0453034 C63.9299624,17.6031051 63.7892261,17.7140809 63.6387722,17.8386685 C63.2975604,18.2556915 62.9343533,18.5639505 62.549151,18.7634455 C62.1325939,18.9791791 61.4134835,18.6552784 60.7438981,19.1576813 C60.5109214,19.3324882 59.9850909,19.9052022 59.1664066,20.8758234 L43.0603434,40.8768522 L19.8605498,49.8168571 C16.7791531,48.3573847 16.5379124,43.8224968 17.7863499,40.8709883 C19.0347874,37.9194799 26.4575967,35.3090952 40.0547776,33.0398343 Z" transform="rotate(11 41.148 31.398)"/>
            <path fill="url(#emptygrid_nodata-d)" d="M10.5313379,0.173257601 C14.5308901,-0.120900283 17.7521681,0.328617461 20.195172,1.52181083 C21.1155371,1.97132858 22.2659936,2.64560519 23.6465413,3.54464068 C24.8251782,3.54464068 22.8137998,6.04038804 22.2659936,6.91602376 C20.4971453,9.74342247 10.5313379,10.2874068 11.9118856,11.6359601 C12.1882928,11.9059614 7.77024245,11.6359601 7.77024245,13.6587899 C7.77024245,14.2960586 8.46051631,15.656449 8.46051631,16.3558964 C8.46051631,18.4518217 7.77024245,19.8959943 7.77024245,20.4015561 C7.77024245,24.7346971 3.83124422,18.8550093 1.55777769,14.3330665 C-0.27826446,10.6811643 -0.513043897,8.9388536 2.24805155,6.24174714 C3.99120115,4.53899542 3.62859928,6.91602376 3.62859928,4.21891729 C3.62859928,2.42084632 5.92951215,1.07229309 10.5313379,0.173257601 Z"/>
            <path fill="#67696F" d="M20.8854458,23.7729391 C19.5505123,26.5748792 10.4544052,27.7578878 7.77024245,23.7729391 C7.70909784,23.6821629 7.24891527,22.7831275 6.38969473,21.0758327 C6.38969473,18.4422182 4.88189522,14.8554052 6.38969473,13.6587899 C6.86902489,13.2783853 7.77024245,14.3330665 7.77024245,14.3330665 C7.77024245,14.3330665 7.25270781,15.6599803 7.77024245,17.030173 C8.53828686,19.0635998 12.0641285,20.4015561 15.3632549,20.4015561 C19.5723119,20.4015561 22.2106201,16.8336523 22.2659936,19.0530028 C22.2832689,19.7453918 21.8453711,21.7581173 20.8854458,23.7729391 Z"/>
            <path fill="#9EA0A5" d="M1.04507141,34.8647895 C-1.37739907,43.6303855 1.72883266,49.698875 4.75692076,61.1615775 C6.77564617,68.8033791 6.34585321,76.4451808 3.4675419,84.0869824 L31.3259525,78.6927695 C30.1604447,73.4937358 28.9492094,67.6500052 27.6922468,61.1615775 C26.4352841,54.6731498 24.6184312,48.6046603 22.2416882,42.9561089 C25.4937159,45.1688976 27.3105688,45.8431743 27.6922468,44.9789387 C28.3333003,43.5273978 30.1219344,38.8074615 33.0581491,30.8191298 C27.4621555,30.8191298 23.8566685,30.8191298 22.2416882,30.8191298 C20.6267078,30.8191298 19.4154726,30.8191298 18.6079824,30.8191298 C8.51435541,27.6725056 2.66005174,29.0210588 1.04507141,34.8647895 Z"/>
          </g>
        </g>
      </g>
      <path fill="#9CA0A0" d="M50.7599818,150.165963 C50.4055578,150.74395 50.342168,151.482773 50.5698122,152.382432 C50.9112786,153.73192 55.3138095,153.740881 58.7017768,154.422173 C62.0897441,155.103466 68.7920929,155.926443 68.8628685,155.117252 C68.933644,154.30806 59.4831017,149.425278 56.1720674,149.13016 C53.9647113,148.933415 52.1606827,149.278682 50.7599818,150.165963 Z" transform="rotate(-5 59.65 152.265)"/>
      <path fill="#9EA0A5" d="M29.4585176,149.694854 C28.839677,150.81914 28.6525239,151.831609 28.8970583,152.732261 C29.2638598,154.083239 33.9603247,154.102077 37.5757576,154.791332 C41.1911904,155.480587 47.6517557,157.204959 47.850905,156.075215 C47.9964237,155.24971 37.0021739,149.47308 35.1095038,148.830735 C33.8477238,148.402505 31.9640617,148.690545 29.4585176,149.694854 Z" transform="rotate(-10 38.323 152.544)"/>
    </g>
  </g>
</svg>
