<svg id="Layer_3" enable-background="new 0 0 64 64" height="512" viewBox="0 0 64 64" width="512" xmlns="http://www.w3.org/2000/svg"><path d="m4 44h4v18h-4z" fill="#976947"/><path d="m2 2h8v42h-8z" fill="#f5cf88"/><path d="m10 37h8v2h-8z" fill="#4d5d7a"/><path d="m49.122 38.521-.261.479c-.774 1.419-1.453 2.883-2.078 4.37l-3.369-3.37.293-.293-1.414-1.414-.293.293-.293-.293-1.414 1.414.293.293-2.086 2.086-2.086-2.086.293-.293-1.414-1.414-.293.293-.293-.293-1.414 1.414.293.293-2.086 2.086-2.086-2.086.293-.293-1.414-1.414-.293.293-.293-.293-1.414 1.414.293.293-2.086 2.086-3.793-3.793-.707.707-.878.479.261.479c3.675 6.737 5.617 14.354 5.617 22.027v.015l2-.015c0-1.772-.116-3.54-.312-5.297l.019.019 1.293-1.293 2.086 2.086-2.793 2.793 1.414 1.414 2.793-2.793 2.793 2.793.707-.707.707.707 2.793-2.793 2.793 2.793 1.414-1.414-2.793-2.793 3.832-3.832c-.484 2.745-.746 5.533-.746 8.332l2-.015c0-7.673 1.942-15.29 5.617-22.028l.261-.479zm-14.122 9.893 2.086 2.086-2.086 2.086-2.086-2.086zm-3.5.672-2.086-2.086 2.086-2.086 2.086 2.086zm4.914-2.086 2.086-2.086 2.086 2.086-2.086 2.086zm5.586 1.414 2.086 2.086-2.086 2.086-2.086-2.086zm1.414-1.414 2.086-2.086.483.483c-.381 1.035-.723 2.082-1.032 3.14zm-1.414-5.586 2.086 2.086-2.086 2.086-2.086-2.086zm-7 0 2.086 2.086-2.086 2.086-2.086-2.086zm-7 0 2.086 2.086-2.086 2.086-2.086-2.086zm-1.414 5.586-1.537 1.536c-.466-1.596-1.007-3.168-1.636-4.709zm-.241 7.241c-.191-1.167-.419-2.327-.696-3.477l2.351-2.35 2.086 2.086zm3.069-.241 2.086-2.086 2.086 2.086-2.086 2.086zm5.586 5.586-2.086-2.086 2.086-2.086 2.086 2.086zm1.414-5.586 2.086-2.086 2.086 2.086-2.086 2.086z" fill="#4d5d7a"/><path d="m18 36h34v4h-34z" fill="#3d98f7"/><circle cx="47" cy="17" fill="#c66b60" r="15"/><path d="m32 17c0 4.76 2.224 8.994 5.683 11.742.917.158 1.855.258 2.817.258 9.113 0 16.5-7.387 16.5-16.5 0-3.049-.841-5.895-2.283-8.345-2.257-1.359-4.891-2.155-7.717-2.155-8.284 0-15 6.716-15 15z" fill="#e47c6e"/><path d="m58.26 26.888c.519-.591.991-1.22 1.413-1.888h-.597l-.146-.022c-6.818-1.049-12.827-4.997-16.522-10.731 1.228-.792 2.526-1.471 3.875-2.04.659.778 1.531 1.382 2.57 1.694 4.213 1.264 7.94 3.931 10.497 7.51l.78 1.092.414.912c.377-.794.685-1.623.918-2.486l-.486-.68c-2.812-3.938-6.914-6.873-11.55-8.264-.402-.121-.763-.314-1.081-.555 2.037-.655 4.169-1.054 6.347-1.163l5.308-.267h.262c-.363-.686-.785-1.334-1.246-1.952l-4.423.222c-2.562.128-5.061.638-7.437 1.463-.099-.322-.156-.659-.156-1.01 0-1.298.722-2.465 1.883-3.046l3.507-1.756 1.059-.448c-.852-.407-1.747-.734-2.679-.976l-2.782 1.391c-1.842.922-2.988 2.774-2.988 4.835 0 .606.099 1.191.283 1.739-1.348.583-2.65 1.266-3.885 2.057-.094-.177-.195-.349-.285-.529l-3.232-6.462-.16-.298c-.542.428-1.053.891-1.531 1.388l3.134 6.267c.133.267.281.524.423.786-.919.688-1.794 1.435-2.621 2.236-1.328-1.129-3.009-1.822-4.827-1.892-.131.648-.204 1.315-.249 1.991 1.386.012 2.673.511 3.696 1.346-1.141 1.281-2.162 2.677-3.049 4.172.266.843.61 1.651 1.014 2.422l.201-.529.018-.032c.879-1.632 1.94-3.135 3.137-4.509.224.372.425.761.566 1.186.983 2.95 2.521 5.633 4.569 7.975l3.41 3.895c.458.04.92.068 1.388.068.454 0 .901-.028 1.344-.068l-.591-.59-4.045-4.624c-1.874-2.141-3.279-4.593-4.179-7.291-.249-.747-.611-1.43-1.048-2.051.724-.705 1.489-1.362 2.29-1.974 3.942 6.07 10.283 10.271 17.489 11.486z" fill="#bf5763"/></svg>