<?xml version="1.0" standalone="no"?>
<!DOCTYPE svg PUBLIC "-//W3C//DTD SVG 20010904//EN"
 "http://www.w3.org/TR/2001/REC-SVG-20010904/DTD/svg10.dtd">
<svg version="1.0" xmlns="http://www.w3.org/2000/svg"
 width="48.000000pt" height="48.000000pt" viewBox="0 0 48.000000 48.000000"
 preserveAspectRatio="xMidYMid meet">
<metadata>
Created by potrace 1.16, written by Peter Selinger 2001-2019
</metadata>
<g transform="translate(0.000000,48.000000) scale(0.100000,-0.100000)"
fill="#000000" stroke="none">
<path d="M230 345 l0 -95 -28 0 c-23 0 -30 6 -40 33 -13 37 -68 95 -79 84 -3
-4 5 -20 19 -35 24 -25 48 -64 48 -76 0 -3 -25 -6 -55 -6 -30 0 -55 -4 -55
-10 0 -5 25 -10 55 -10 30 0 55 -2 55 -5 0 -14 -30 -62 -49 -79 -12 -11 -21
-26 -21 -35 0 -24 68 48 82 86 10 27 17 33 40 33 l28 0 0 -95 c0 -57 4 -95 10
-95 6 0 10 38 10 95 l0 95 28 0 c23 0 30 -6 40 -33 13 -37 68 -95 79 -84 3 4
-5 20 -19 35 -24 25 -48 64 -48 76 0 3 25 6 55 6 30 0 55 5 55 10 0 6 -25 10
-55 10 -30 0 -55 3 -55 6 0 12 24 51 48 76 14 15 22 31 19 35 -11 11 -66 -47
-79 -84 -10 -27 -17 -33 -40 -33 l-28 0 0 95 c0 57 -4 95 -10 95 -6 0 -10 -38
-10 -95z"/>
</g>
</svg>
