<?xml version="1.0" standalone="no"?>
<!DOCTYPE svg PUBLIC "-//W3C//DTD SVG 20010904//EN"
 "http://www.w3.org/TR/2001/REC-SVG-20010904/DTD/svg10.dtd">
<svg version="1.0" xmlns="http://www.w3.org/2000/svg"
 width="48.000000pt" height="48.000000pt" viewBox="0 0 48.000000 48.000000"
 preserveAspectRatio="xMidYMid meet">
<metadata>
Created by potrace 1.16, written by Peter Selinger 2001-2019
</metadata>
<g transform="translate(0.000000,48.000000) scale(0.100000,-0.100000)"
fill="#000000" stroke="none">
<path d="M138 253 c-9 -10 -23 -32 -32 -50 -15 -30 -17 -31 -52 -22 -40 12
-39 12 -48 -18 -6 -19 -4 -23 16 -23 13 0 43 -7 66 -15 24 -9 78 -18 120 -21
43 -2 85 -7 96 -10 10 -4 21 -2 25 4 3 5 37 23 76 40 74 32 80 38 65 62 -8 12
-13 13 -29 3 -56 -35 -144 -63 -176 -57 -29 5 -34 11 -40 42 -13 74 -53 103
-87 65z"/>
</g>
</svg>
