<?xml version="1.0" encoding="iso-8859-1"?>
<!-- Generator: Adobe Illustrator 19.0.0, SVG Export Plug-In . SVG Version: 6.00 Build 0)  -->
<svg version="1.1" id="Capa_1" xmlns="http://www.w3.org/2000/svg" xmlns:xlink="http://www.w3.org/1999/xlink" x="0px" y="0px"
	 viewBox="0 0 459.743 459.743" style="enable-background:new 0 0 459.743 459.743;" xml:space="preserve">
<path style="fill:#FFCC4D;" d="M35.601,320.998v-41.28H9.521l12.4-13.6c40-42.64,94.72-127.44,116.24-161.92l19.12-6.48
	c-9.44,50.56-40,184.64-76.64,224.48l-2.72,2.88L35.601,320.998z"/>
<path style="fill:#EF6825;" d="M35.601,349.158v-28.16l198.88,19.44h0.64l0.4,0.08l66.88,6.56l0.16,28.56L35.601,349.158z"/>
<g>
	<path style="fill:#FFCC4D;" d="M155.761,332.758v-188.32l16,32c16,72.88,33.04,124.56,49.36,149.36l8.8,14.24L155.761,332.758z"/>
	<path style="fill:#FFCC4D;" d="M234.881,340.518l-1.44-0.8c-28.88-16-60.64-143.44-73.68-208.48l20.48,10.56
		c27.92,51.52,70.24,121.52,112.88,162.4l8.8-1.28v44.16L234.881,340.518z"/>
	<path style="fill:#FFCC4D;" d="M79.441,325.238l8-11.28c18.32-25.68,36.48-74.88,52.48-142.32l16-36.56v197.6L79.441,325.238z"/>
</g>
<g>
	<path style="fill:#EF6825;" d="M302.081,302.438l132.72-24.32v55.04l-132.24,37.04L302.081,302.438z"/>
	<path style="fill:#EF6825;" d="M290.081,301.158c-56-56-111.44-160.8-132.64-203.44l-6.72-13.52l15.04,2.08
		c30.285,4.018,60.809,5.97,91.36,5.84c30.56,0,54.24-1.84,63.04-2.56l4.96-0.48l2.56,4.24c39.28,65.12,94.24,141.6,116.24,171.44
		l7.52,10.32l-158.32,29.04L290.081,301.158z"/>
</g>
<path style="fill:#2D1F14;" d="M331.921,84.998c-1.647-2.777-4.803-4.292-8-3.84c-57.384,5.134-115.175,3.442-172.16-5.04h-0.96
	c-2.95-0.162-5.748,1.314-7.28,3.84c-0.88,1.52-90.72,150.48-140.72,193.44c-3.358,2.871-3.753,7.921-0.881,11.279
	c1.502,1.757,3.69,2.778,6.001,2.801h19.36v61.52c-0.021,4.124,3.097,7.588,7.2,8l267.44,26.64h0.8c4.18,0.013,7.666-3.193,8-7.36
	l126.48-35.44c3.562-0.996,5.977-4.304,5.84-8v-48l10.16-1.84c4.344-0.806,7.212-4.981,6.407-9.325
	c-0.223-1.201-0.718-2.335-1.447-3.315C457.121,269.238,380.561,166.438,331.921,84.998L331.921,84.998z M163.921,178.438
	c11.92,54.24,29.6,120,50.48,152l-50.64-4.64L163.921,178.438z M173.361,145.558c27.36,50.64,70.4,122.32,114.24,164.24
	c1.747,1.675,4.159,2.47,6.56,2.16v26.24l-56.96-5.6c-22.48-12.56-47.84-106.64-64-187.12L173.361,145.558z M147.761,173.798v150.4
	l-53.84-5.52C117.441,285.798,135.761,223.798,147.761,173.798z M35.761,271.958h-8c40-42.56,93.36-124.88,117.2-163.2
	c-8,43.92-34.16,169.44-70.16,208l-31.36-3.04v-34c0.002-4.326-3.436-7.87-7.76-8L35.761,271.958z M43.761,342.118v-12.32
	l33.68,3.28l40,3.92l68,6.64l48.96,4.8l60.24,5.92v12.4L43.761,342.118z M426.961,327.318l-116.48,32.32v-50.56l116.64-21.36
	L426.961,327.318z M295.921,295.318c-56-55.52-112-163.36-131.12-201.28c51.821,6.566,104.189,7.665,156.24,3.28
	c40,66.08,96,144,116.64,172L295.921,295.318z"/>
<g>
</g>
<g>
</g>
<g>
</g>
<g>
</g>
<g>
</g>
<g>
</g>
<g>
</g>
<g>
</g>
<g>
</g>
<g>
</g>
<g>
</g>
<g>
</g>
<g>
</g>
<g>
</g>
<g>
</g>
</svg>
