<svg id="Capa_1" enable-background="new 0 0 512 512" height="512" viewBox="0 0 512 512" width="512" xmlns="http://www.w3.org/2000/svg"><g><path d="m512 99.5v412.5h-512v-412.5c0-27.29 22.21-49.5 49.5-49.5h85.14v15h242.72v-15h85.14c27.29 0 49.5 22.21 49.5 49.5z" fill="#c4f3ff"/><path d="m512 99.5v412.5h-256v-447h121.36v-15h85.14c27.29 0 49.5 22.21 49.5 49.5z" fill="#a0eaea"/><path d="m361.51 167.23h-211.02l9.24-167.23h192.54z" fill="#2a386d"/><path d="m241 167.23h30v344.77h-30z" fill="#62e0ff"/><path d="m316.998 286.404v110.212c0 29.436 23.948 53.384 53.384 53.384h44.813c29.436 0 53.384-23.948 53.384-53.384v-110.212z" fill="#00b1ff"/><g fill="#48568b"><path d="m174.757 247h30v30h-30z"/><path d="m174.757 309.667h30v30h-30z"/><path d="m174.757 372.333h30v30h-30z"/><path d="m174.757 435h30v30h-30z"/></g><path d="m256 167.23h15v344.77h-15z" fill="#00b1ff"/><path d="m361.51 167.23h-105.51v-167.23h96.27z" fill="#152452"/><path d="m159.732 0 96.268 167.234-128.219 55.896-16.327-169.994c-2.736-28.486 19.66-53.136 48.278-53.136z" fill="#62e0ff"/><path d="m352.268 0-96.268 167.234 128.219 55.896 16.327-169.994c2.736-28.486-19.66-53.136-48.278-53.136z" fill="#00b1ff"/></g></svg>