<?xml version="1.0" encoding="iso-8859-1"?>
<svg version="1.1" id="Capa_1" xmlns="http://www.w3.org/2000/svg" xmlns:xlink="http://www.w3.org/1999/xlink" x="0px" y="0px"
	 width="504.699px" height="504.7px" viewBox="0 0 504.699 504.7" style="enable-background:new 0 0 504.699 504.7;"
	 xml:space="preserve">
<g>
	<path d="M425.937,10.577V7.708H144.316c-40.566,0-75.539,23.645-92.126,57.856l115.173-5.438v49.328l-92.381,3.61v47.551
		c0,20.021-14.237,36.775-33.128,40.666v27.91h102.469h72.461v267.798h56.985V229.193h26h126.168h78.763V110.18
		C504.699,61.762,471.081,21.288,425.937,10.577z M486.828,208.583H320.016v-96.866c0-46.064,37.345-83.403,83.409-83.403
		s83.409,37.345,83.409,83.403v96.866H486.828z M26.588,195.769C7.919,195.769,0,187.853,0,169.184v-58.587V76.793l152.765-7.213
		v33.801l-92.382,3.605v54.982C60.383,180.644,45.258,195.769,26.588,195.769z"/>
</g>
</svg>
