<?xml version="1.0" encoding="iso-8859-1"?>
<!-- Generator: Adobe Illustrator 19.0.0, SVG Export Plug-In . SVG Version: 6.00 Build 0)  -->
<svg version="1.1" id="Capa_1" xmlns="http://www.w3.org/2000/svg" xmlns:xlink="http://www.w3.org/1999/xlink" x="0px" y="0px"
	 viewBox="0 0 512.001 512.001" style="enable-background:new 0 0 512.001 512.001;" xml:space="preserve">
<path style="fill:#CCCCCC;" d="M434.131,490.902v-15.748h62.643v15.748c0,6.93-5.669,12.598-12.598,12.598h-37.445
	C439.8,503.5,434.131,497.83,434.131,490.902z"/>
<path style="fill:#BABABA;" d="M464.13,490.902v-15.748h-29.999v15.748c0,6.93,5.67,12.598,12.598,12.598h29.999
	C469.799,503.5,464.13,497.83,464.13,490.902z"/>
<path style="fill:#CCCCCC;" d="M15.225,490.902v-15.748h62.643v15.748c0,6.93-5.67,12.598-12.598,12.598H27.825
	C20.895,503.5,15.225,497.83,15.225,490.902z"/>
<path style="fill:#BABABA;" d="M45.224,490.902v-15.748H15.225v15.748c0,6.93,5.67,12.598,12.598,12.598h29.999
	C50.894,503.5,45.224,497.83,45.224,490.902z"/>
<g>
	<path style="fill:#EFEFEF;" d="M455.759,37.054c-16.465-16.465-41.2-29.502-71.672-29.502c-69.993,0-101.721,58.968-101.721,58.968
		c0,83.454,0,77.798,0,78.043c0,0,31.728,58.968,101.721,58.968c16.507,0,30.676-4.48,42.695-11.323c0,12.749,0,255.96,0,276.176
		c0,4.29,3.478,7.768,7.768,7.768h62.32c4.199,0,7.604-3.404,7.604-7.604c0-10.568,0-289.205,0-301.589
		C504.473,166.96,504.897,80.869,455.759,37.054z"/>
	<path style="fill:#EFEFEF;" d="M229.634,66.521c0,0-31.728-58.968-101.721-58.968c-30.472,0-55.207,13.036-71.672,29.502
		C7.103,80.869,7.527,166.96,7.527,166.96c0,12.449,0,291.019,0,301.589c0,4.199,3.404,7.604,7.604,7.604h62.32
		c4.29,0,7.768-3.478,7.768-7.768c0-15.184,0-239.561,0-254.705v-21.471c12.019,6.843,26.188,11.323,42.695,11.323
		c69.993,0,101.721-58.968,101.721-58.968C229.634,144.319,229.634,149.959,229.634,66.521z"/>
</g>
<path style="fill:#DDDDDD;" d="M37.526,468.55c0-10.568,0-289.205,0-301.589c0,0-0.424-86.091,48.715-129.906
	c13.779-13.779,33.352-25.151,57.229-28.497c-34.821-4.57-65.562,6.832-87.227,28.497C7.103,80.869,7.527,166.96,7.527,166.96
	c0,12.449,0,291.019,0,301.589c0,4.199,3.404,7.604,7.604,7.604h29.999C40.929,476.153,37.526,472.748,37.526,468.55z"/>
<path style="fill:#EFEFEF;" d="M229.632,66.617c-8.392-10.516-25.251-4.546-25.251,9.224v59.401
	c0,13.776,16.864,19.733,25.251,9.224l0.003,0.096"/>
<g>
	<circle style="fill:#666666;" cx="350.135" cy="105.545" r="14.173"/>
	<path style="fill:#666666;" d="M218.554,149.812c7.828,0,14.173-6.346,14.173-14.173V75.444c0-7.828-6.346-14.173-14.173-14.173
		s-14.173,6.346-14.173,14.173v60.194C204.38,143.467,210.726,149.812,218.554,149.812z"/>
</g>
<path style="fill:#535454;" d="M218.554,111.844c-7.828,0-14.173-6.346-14.173-14.173v37.968c0,7.828,6.346,14.173,14.173,14.173
	s14.173-6.346,14.173-14.173V97.67C232.728,105.499,226.382,111.844,218.554,111.844z"/>
<circle style="fill:#666666;" cx="161.863" cy="105.545" r="14.173"/>
<g>
	<path style="fill:#DDDDDD;" d="M399.202,8.656c-4.864-0.715-9.904-1.104-15.115-1.104c-69.993,0-101.721,58.968-101.721,58.968
		c0,83.454,0,77.798,0,78.043c0,0,31.728,58.968,101.721,58.968c5.053,0,9.885-0.424,14.504-1.203
		c-46.269-7.367-81.277-47.999-81.277-96.161v-1.253C317.315,56.542,352.629,15.761,399.202,8.656z"/>
	<path style="fill:#DDDDDD;" d="M456.935,468.386c0-34.013,0-238.001,0-276.176c0-42.901-47.3-36.237-47.3-36.237
		c12.003,6.792,17.104,23.247,17.104,36.237v0.022c0.014-0.008,0.028-0.015,0.042-0.022c0,16.275,0,259.977,0,276.176
		c0,4.29,3.478,7.768,7.768,7.768h30.154C460.413,476.153,456.935,472.675,456.935,468.386z"/>
</g>
<path style="fill:#666666;" d="M293.446,149.812c-7.828,0-14.173-6.346-14.173-14.173V75.444c0-7.828,6.346-14.173,14.173-14.173
	s14.173,6.346,14.173,14.173v60.194C307.62,143.467,301.273,149.812,293.446,149.812z"/>
<path style="fill:#535454;" d="M293.446,111.844c-7.828,0-14.173-6.346-14.173-14.173v37.968c0,7.828,6.346,14.173,14.173,14.173
	s14.173-6.346,14.173-14.173V97.67C307.62,105.499,301.273,111.844,293.446,111.844z"/>
<path d="M481.341,55.66c-2.266-3.47-6.913-4.445-10.38-2.181c-3.469,2.264-4.445,6.911-2.181,10.38
	c28.085,43.023,28.195,102.475,28.193,103.101c0,0.732,0.034,322.203-0.2,301.692c-66.107-0.127-62.492,0.26-62.492-0.267V281.308
	c0-4.143-3.357-7.5-7.5-7.5c-4.143,0-7.5,3.357-7.5,7.5v187.078c0,5.518,2.952,10.346,7.35,13.028v10.488
	c0,11.083,9.017,20.099,20.099,20.099h37.445c11.082,0,20.098-9.017,20.098-20.099v-10.203c4.59-2.594,7.7-7.512,7.7-13.149V166.996
	C511.986,164.387,511.931,102.522,481.341,55.66z M489.274,491.901c0,2.765-2.335,5.1-5.099,5.1H446.73c-2.765,0-5.1-2.335-5.1-5.1
	v-8.249h47.643v8.249H489.274z"/>
<path d="M433.298,41.579c-3.326-2.474-8.023-1.78-10.493,1.544c-2.472,3.324-1.78,8.022,1.544,10.493
	c5.197,3.865,8.338,7.204,8.919,7.722c9.382,8.366,17.299,19.519,23.533,33.148c1.261,2.756,3.98,4.383,6.825,4.383
	c1.043,0,2.103-0.219,3.114-0.682c3.768-1.723,5.424-6.173,3.701-9.939C462.117,70.049,450.359,54.263,433.298,41.579z"/>
<path d="M328.467,105.542c0,11.95,9.723,21.673,21.673,21.673s21.674-9.723,21.674-21.673s-9.724-21.674-21.674-21.674
	C338.189,83.868,328.467,93.592,328.467,105.542z M356.814,105.542c0,3.68-2.994,6.674-6.675,6.674c-3.68,0-6.674-2.994-6.674-6.674
	c0-3.681,2.994-6.675,6.674-6.675C353.82,98.867,356.814,101.861,356.814,105.542z"/>
<path d="M483.395,159.63c-0.18-0.45-0.42-0.89-0.69-1.29c-0.27-0.42-0.58-0.8-0.93-1.14c-0.34-0.351-0.73-0.66-1.14-0.94
	c-0.4-0.27-0.841-0.5-1.29-0.689c-0.46-0.181-0.931-0.33-1.41-0.431c-0.96-0.189-1.96-0.189-2.93,0
	c-0.471,0.101-0.95,0.25-1.4,0.431c-0.45,0.189-0.89,0.42-1.29,0.689c-0.42,0.28-0.8,0.59-1.14,0.94
	c-0.351,0.34-0.66,0.72-0.94,1.14c-0.27,0.4-0.5,0.84-0.69,1.29c-0.18,0.45-0.329,0.92-0.42,1.4c-0.1,0.49-0.149,0.98-0.149,1.47
	c0,0.49,0.05,0.98,0.149,1.46c0.091,0.48,0.24,0.95,0.42,1.41c0.19,0.45,0.421,0.89,0.69,1.29c0.28,0.41,0.59,0.8,0.94,1.14
	c0.34,0.351,0.72,0.66,1.14,0.931c0.4,0.27,0.84,0.51,1.29,0.689c0.45,0.191,0.93,0.34,1.4,0.43c0.489,0.101,0.979,0.15,1.47,0.15
	c0.49,0,0.979-0.05,1.46-0.15c0.479-0.09,0.95-0.239,1.41-0.43c0.449-0.18,0.89-0.42,1.29-0.689c0.409-0.271,0.8-0.58,1.14-0.931
	c0.35-0.34,0.66-0.729,0.93-1.14c0.271-0.4,0.511-0.84,0.69-1.29c0.189-0.46,0.34-0.93,0.43-1.41c0.101-0.479,0.15-0.97,0.15-1.46
	c0-0.49-0.05-0.98-0.15-1.47C483.735,160.55,483.585,160.08,483.395,159.63z"/>
<path d="M451.954,442.868c-4.143,0-7.5,3.357-7.5,7.5c0,4.143,3.357,7.5,7.5,7.5h26.999c4.143,0,7.5-3.357,7.5-7.5
	c0-4.143-3.357-7.5-7.5-7.5H451.954z"/>
<path d="M48.374,98.867c2.845,0,5.565-1.627,6.825-4.383c6.234-13.629,14.151-24.782,23.533-33.148
	c0.106-0.095,0.21-0.192,0.312-0.293c2.663-2.663,5.56-5.162,8.607-7.429c3.324-2.471,4.016-7.169,1.544-10.493
	c-2.472-3.326-7.172-4.018-10.493-1.544c-3.574,2.657-6.976,5.585-10.111,8.706c-10.87,9.737-19.964,22.509-27.032,37.962
	c-1.723,3.767-0.066,8.217,3.701,9.939C46.271,98.649,47.331,98.867,48.374,98.867z"/>
<path d="M183.533,105.542c0-11.95-9.723-21.674-21.673-21.674s-21.674,9.724-21.674,21.674s9.724,21.673,21.674,21.673
	C173.812,127.215,183.533,117.493,183.533,105.542z M155.186,105.542c0-3.681,2.994-6.675,6.675-6.675
	c3.68,0,6.674,2.994,6.674,6.675c0,3.68-2.994,6.674-6.674,6.674C158.18,112.216,155.186,109.222,155.186,105.542z"/>
<path d="M39.684,156.26c-0.399-0.27-0.84-0.5-1.29-0.689c-0.449-0.181-0.93-0.33-1.399-0.431c-0.97-0.189-1.97-0.189-2.94,0
	c-0.47,0.101-0.95,0.25-1.399,0.431c-0.45,0.189-0.891,0.42-1.29,0.689c-0.41,0.28-0.8,0.59-1.141,0.94
	c-1.399,1.39-2.199,3.32-2.199,5.3c0,0.49,0.05,0.98,0.149,1.46c0.09,0.48,0.24,0.96,0.43,1.41c0.181,0.45,0.41,0.89,0.681,1.29
	c0.28,0.41,0.59,0.8,0.94,1.14c0.341,0.351,0.73,0.66,1.141,0.931c0.399,0.27,0.84,0.51,1.29,0.689
	c0.449,0.191,0.93,0.33,1.399,0.43c0.49,0.101,0.98,0.15,1.471,0.15c0.489,0,0.979-0.05,1.47-0.15c0.47-0.1,0.95-0.239,1.399-0.43
	c0.45-0.18,0.891-0.42,1.29-0.689c0.41-0.271,0.801-0.58,1.141-0.931c0.35-0.34,0.66-0.729,0.939-1.14c0.271-0.4,0.5-0.84,0.69-1.29
	c0.18-0.45,0.33-0.93,0.42-1.41c0.1-0.479,0.15-0.97,0.15-1.46c0-1.97-0.801-3.91-2.2-5.3
	C40.485,156.85,40.094,156.54,39.684,156.26z"/>
<path d="M25.548,450.367c0,4.143,3.357,7.5,7.5,7.5h26.999c4.143,0,7.5-3.357,7.5-7.5c0-4.143-3.357-7.5-7.5-7.5H33.048
	C28.905,442.868,25.548,446.224,25.548,450.367z"/>
<path d="M419.282,254.309c0,4.143,3.357,7.5,7.5,7.5c4.143,0,7.5-3.357,7.5-7.5v-62.099c0-28.152-20.715-45.093-27.325-33.404
	c-2.04,3.605-0.772,8.182,2.834,10.221c6.024,3.409,8.406,12.607,9.175,18.845c-33.3,16.531-84.211,8.972-118.957-31.577
	c8.753-2.787,15.111-10.992,15.111-20.655v-0.396c0-6.322,0-53.47,0-59.798c0-9.664-6.359-17.867-15.111-20.654
	c39.448-46.05,108.289-54.596,150.448-12.433c0.026,0.025,1.42,1.294,2.234,2.063c3.011,2.842,7.758,2.708,10.603-0.304
	c2.844-3.012,2.708-7.759-0.304-10.603c-0.684-0.646-1.375-1.285-2.077-1.914C417.909-11.219,348.63-9.782,302.012,31.416
	c-16.904,14.939-25.332,29.873-26.188,31.435c-2.546,3.552-4.051,7.899-4.051,12.593v60.193c0,4.695,1.505,9.042,4.052,12.594
	c0.86,1.569,9.288,16.498,26.187,31.434c35.787,31.627,83.195,38.421,117.27,24.518L419.282,254.309L419.282,254.309z
	 M289.94,141.307c-4.967-3.101-2.644-4.952-3.168-65.862c0-3.913,3.392-7.005,7.3-6.642c3.45,0.316,6.049,3.427,6.049,7.039v59.401
	C300.12,140.813,294.41,144.082,289.94,141.307z"/>
<path d="M209.987,31.416C163.617-9.565,94.265-11.412,51.09,31.6C0.173,77.18,0.009,163.348,0.027,166.96v208.926
	c0,4.143,3.358,7.5,7.5,7.5c4.143,0,7.5-3.357,7.5-7.5V166.923c-0.004-0.827,0.127-83.183,46.206-124.272
	c0.108-0.095,0.211-0.193,0.313-0.294C99.599,4.299,168.273,3.767,211.992,54.79c-8.753,2.787-15.111,10.992-15.111,20.654v0.396
	c0,6.404,0,53.482,0,59.797c0,9.664,6.359,17.868,15.111,20.655c-34.777,40.573-85.683,48.097-118.961,31.575
	c0.774-6.155,3.17-15.443,9.179-18.843c3.605-2.039,4.874-6.615,2.834-10.221c-2.04-3.605-6.615-4.874-10.221-2.834
	c-12.004,6.793-17.105,23.251-17.105,36.237c-0.125,288.323,0.262,276.443-0.267,276.443c-7.136,0-55.368,0-62.321,0
	c-0.206,0-0.055,2.647-0.104-65.767c0-4.143-3.357-7.5-7.5-7.5c-4.142,0-7.5,3.357-7.5,7.5v65.664c0,5.638,3.11,10.556,7.7,13.149
	v10.202c0,11.083,9.017,20.099,20.098,20.099h37.445c11.083,0,20.099-9.017,20.099-20.099v-10.488
	c4.398-2.683,7.35-7.511,7.35-13.028V204.185c34.066,13.9,81.476,7.117,117.269-24.518c16.881-14.919,25.309-29.833,26.184-31.428
	c2.549-3.554,4.056-7.904,4.056-12.601V75.444c0-4.697-1.507-9.046-4.055-12.599C235.301,61.257,226.873,46.34,209.987,31.416z
	 M70.369,491.901c0,2.765-2.335,5.1-5.1,5.1H27.824c-2.764,0-5.099-2.335-5.099-5.1v-8.249h47.644V491.901z M222.652,140.896
	c-0.154,0.12-0.365,0.27-0.597,0.414c-0.178,0.11-0.296,0.188-0.681,0.369c-0.103,0.048-0.333,0.178-0.876,0.343
	c-0.084,0.026-0.522,0.137-0.734,0.175c-0.128,0.024-0.469,0.073-0.763,0.093c-0.252,0.017-0.43,0.022-0.774,0.006
	c-0.335-0.016-0.187,0-0.531-0.045c-0.29-0.037-0.534-0.075-0.966-0.198c-2.804-0.832-4.851-3.594-4.851-6.811v-59.4
	c0-4.511,3.942-8.005,8.373-6.843c2.922,0.77,4.975,3.426,4.975,6.446C224.684,138.682,226.808,137.625,222.652,140.896z"/>
<g>
</g>
<g>
</g>
<g>
</g>
<g>
</g>
<g>
</g>
<g>
</g>
<g>
</g>
<g>
</g>
<g>
</g>
<g>
</g>
<g>
</g>
<g>
</g>
<g>
</g>
<g>
</g>
<g>
</g>
</svg>
