<?xml version="1.0" encoding="iso-8859-1"?>
<!-- Generator: Adobe Illustrator 22.0.0, SVG Export Plug-In . SVG Version: 6.00 Build 0)  -->
<svg xmlns="http://www.w3.org/2000/svg" xmlns:xlink="http://www.w3.org/1999/xlink" version="1.1" id="Layer_1_1_" x="0px" y="0px" viewBox="0 0 64 64" style="enable-background:new 0 0 64 64;" xml:space="preserve" width="512" height="512">
<g>
	<g>
		<path style="fill:#F0BC5E;" d="M32,2c-9.941,0-18,8.059-18,18c0,9.941,8.059,18,18,18s18-8.059,18-18C50,10.059,41.941,2,32,2z     M32,33c-7.18,0-13-5.82-13-13S24.82,7,32,7s13,5.82,13,13S39.18,33,32,33z"/>
	</g>
	<g>
		<path style="fill:#F0BC5E;" d="M24.81,53.333l3.458-2.421c0.273,1.211,0.752,2.365,1.406,3.414l-2.872,2.872    C25.954,56.011,25.279,54.714,24.81,53.333z"/>
	</g>
	<g>
		<path style="fill:#F0BC5E;" d="M39.19,53.333l-3.458-2.421c-0.273,1.211-0.752,2.365-1.406,3.414l2.872,2.872    C38.046,56.011,38.721,54.714,39.19,53.333z"/>
	</g>
	<g>
		<rect x="21" y="41" width="2" height="2"/>
		<rect x="17" y="35" width="2" height="2"/>
		<rect x="41" y="41" width="2" height="2"/>
		<rect x="45" y="35" width="2" height="2"/>
		<path d="M48.181,29.909C49.957,27.019,51,23.633,51,20C51,9.523,42.477,1,32,1S13,9.523,13,20c0,3.633,1.043,7.019,2.819,9.908    l-1.281,1.708C13.546,32.938,13,34.577,13,36.229c0,2.054,0.8,3.984,2.252,5.437l1.756,1.756c0.044,2.607,1.351,5.018,3.526,6.469    l2.824,1.882c0.79,3.757,2.907,7.175,6.022,9.51L32,63.25l2.62-1.966c3.115-2.335,5.232-5.753,6.022-9.51l2.824-1.882    c2.175-1.451,3.481-3.862,3.526-6.469l1.756-1.756C50.2,40.214,51,38.283,51,36.229c0-1.652-0.546-3.291-1.538-4.612    L48.181,29.909z M32,44.414l1.357-1.357C34.429,44.686,35,46.575,35,48.526c0,2.657-1.108,5.259-3,7.116    c-1.892-1.858-3-4.46-3-7.116c0-1.952,0.571-3.84,1.643-5.469L32,44.414z M32,41.586l-2.819-2.819C30.104,38.905,31.04,39,32,39    s1.896-0.095,2.819-0.233L32,41.586z M40.403,28.553l-0.304-0.527l-1.732,1l0.474,0.82c-0.546,0.38-1.127,0.71-1.734,0.997    l-0.472-0.817l-1.732,1l0.304,0.526C34.183,31.836,33.111,32,32,32c-1.111,0-2.183-0.164-3.205-0.448l0.304-0.526l-1.732-1    l-0.472,0.817c-0.607-0.287-1.188-0.617-1.734-0.997l0.474-0.82l-1.732-1l-0.304,0.527C21.38,26.375,20,23.347,20,20    c0-6.617,5.383-12,12-12s12,5.383,12,12C44,23.347,42.62,26.375,40.403,28.553z M27.763,33.341C29.1,33.767,30.523,34,32,34    c1.477,0,2.9-0.234,4.238-0.659l1.521,2.634C35.957,36.626,34.024,37,32,37c-2.023,0-3.957-0.374-5.758-1.025L27.763,33.341z     M24.391,35.18c-0.598-0.301-1.18-0.627-1.736-0.994l1.5-2.598c0.55,0.374,1.136,0.696,1.738,0.99L24.391,35.18z M38.107,32.578    c0.602-0.294,1.188-0.616,1.738-0.99l1.5,2.598c-0.555,0.367-1.137,0.693-1.735,0.994L38.107,32.578z M45.949,21h3    c-0.093,1.59-0.401,3.12-0.904,4.564l-2.771-1.148C45.637,23.33,45.865,22.185,45.949,21z M45.949,19    c-0.084-1.185-0.312-2.33-0.674-3.416l2.771-1.148c0.502,1.444,0.81,2.974,0.904,4.564H45.949z M44.504,13.739    c-0.526-1.046-1.176-2.016-1.936-2.893l2.12-2.12c1.031,1.159,1.902,2.456,2.588,3.864L44.504,13.739z M41.154,9.432    c-0.876-0.76-1.847-1.41-2.893-1.936l1.149-2.772c1.408,0.686,2.706,1.557,3.864,2.588L41.154,9.432z M36.416,6.725    C35.33,6.363,34.185,6.135,33,6.051v-3c1.59,0.093,3.12,0.401,4.564,0.904L36.416,6.725z M31,6.051    c-1.185,0.084-2.33,0.312-3.416,0.674l-1.148-2.771C27.88,3.452,29.41,3.144,31,3.051V6.051z M25.739,7.496    c-1.046,0.526-2.016,1.176-2.893,1.936l-2.12-2.12c1.159-1.031,2.456-1.902,3.864-2.588L25.739,7.496z M21.432,10.846    c-0.76,0.876-1.41,1.847-1.936,2.893l-2.772-1.149c0.686-1.408,1.557-2.706,2.588-3.864L21.432,10.846z M18.725,15.584    c-0.362,1.086-0.59,2.231-0.674,3.416h-3c0.093-1.59,0.401-3.12,0.904-4.564L18.725,15.584z M18.051,21    c0.084,1.185,0.312,2.33,0.674,3.416l-2.771,1.148c-0.502-1.444-0.81-2.974-0.904-4.564H18.051z M19.496,26.261    c0.773,1.538,1.82,2.911,3.08,4.061l-1.532,2.655c-1.804-1.525-3.275-3.423-4.32-5.567L19.496,26.261z M42.957,32.978    l-1.532-2.655c1.259-1.151,2.306-2.523,3.08-4.061l2.772,1.149C46.232,29.555,44.76,31.452,42.957,32.978z M15,36.229    c0-1.223,0.404-2.435,1.138-3.413l0.88-1.174c1.329,1.706,2.937,3.178,4.763,4.349l-0.393,0.197    c-1.981,0.99-3.404,2.717-4.029,4.756l-0.692-0.692C15.592,39.178,15,37.749,15,36.229z M21.644,48.228    C19.988,47.123,19,45.276,19,43.287c0-2.264,1.258-4.298,3.282-5.31l1.625-0.813c0.477,0.226,0.963,0.431,1.461,0.617l0.946,0.946    l-0.635,0.952C23.927,42.309,23,45.367,23,48.526c0,0.212,0.029,0.42,0.037,0.63L21.644,48.228z M33.421,59.685L32,60.75    l-1.421-1.065C27.086,57.064,25,52.894,25,48.526c0-2.763,0.811-5.438,2.343-7.737l0.413-0.619l1.442,1.442l-0.191,0.287    C27.694,43.868,27,46.159,27,48.526c0,3.533,1.632,6.984,4.365,9.232L32,58.281l0.635-0.522C35.368,55.512,37,52.061,37,48.526    c0-2.367-0.694-4.658-2.007-6.628l-0.191-0.287l1.442-1.442l0.413,0.619C38.189,43.088,39,45.764,39,48.526    C39,52.894,36.914,57.064,33.421,59.685z M42.356,48.228l-1.394,0.929C40.971,48.946,41,48.738,41,48.526    c0-3.159-0.927-6.218-2.679-8.847l-0.635-0.952l0.946-0.946c0.497-0.186,0.984-0.391,1.461-0.617l1.625,0.813    C43.742,38.989,45,41.023,45,43.287C45,45.276,44.012,47.123,42.356,48.228z M47.334,40.252l-0.692,0.692    c-0.625-2.039-2.049-3.766-4.029-4.756l-0.393-0.197c1.826-1.171,3.434-2.643,4.763-4.349l0.88,1.174    C48.596,33.795,49,35.007,49,36.229C49,37.749,48.408,39.178,47.334,40.252z"/>
	</g>
</g>
</svg>
