<svg height="512" viewBox="0 0 64 64" width="512" xmlns="http://www.w3.org/2000/svg"><g id="bedroom-bed-hotel"><path d="m8 3h48v19h-48z" fill="#27aae1"/><g fill="#cf9e76"><path d="m22 59v2h-3l-1-4h4z"/><path d="m7 57-1 4h-3v-4z"/><path d="m22 35v11h-19v-11a4 4 0 0 1 4-4h11a4 4 0 0 1 4 4z"/></g><path d="m22 47v2h-19v-2a4 4 0 0 1 4-4h11a4 4 0 0 1 4 4z" fill="#ffeb99"/><path d="m3 49h19v4h-19z" fill="#e9e9ea"/><path d="m15.5 38a2.5 2.5 0 1 1 0 5h-6a2.5 2.5 0 1 1 0-5z" fill="#fff"/><path d="m25 45h14v8h-14z" fill="#cf9e76"/><path d="m25 53h14v8h-14z" fill="#cf9e76"/><path d="m35 29 3 9h-6-6l3-9z" fill="#ffda44"/><path d="m61 57v4h-3l-1-4z" fill="#78b9eb"/><path d="m47 13-6-1-2 2-2.74-2.74 4.74-4.26z" fill="#fff"/><path d="m31.82 15.26 4.44-4 2.74 2.74 2-2 6 1 9 9h-41.4l14.4-9z" fill="#64c37d"/><circle cx="20" cy="10" fill="#ffda44" r="3"/><path d="m3 53h19v4h-19z" fill="#ffeb99"/><path d="m61 59v2h-3l-1-4h4z" fill="#cf9e76"/><path d="m46 57-1 4h-3v-4z" fill="#cf9e76"/><path d="m61 35v11h-19v-11a4 4 0 0 1 4-4h11a4 4 0 0 1 4 4z" fill="#cf9e76"/><path d="m61 47v2h-19v-2a4 4 0 0 1 4-4h11a4 4 0 0 1 4 4z" fill="#ffeb99"/><path d="m42 49h19v4h-19z" fill="#e9e9ea"/><path d="m54.5 38a2.5 2.5 0 1 1 0 5h-6a2.5 2.5 0 1 1 0-5z" fill="#fff"/><path d="m42 53h19v4h-19z" fill="#ffeb99"/><path d="m39 44h-4v-2h-2v-3h5a.983.983 0 0 0 .81-.42 1 1 0 0 0 .14-.9l-3-9a1.014 1.014 0 0 0 -.95-.68h-6a1.014 1.014 0 0 0 -.95.68l-3 9a1 1 0 0 0 .14.9.983.983 0 0 0 .81.42h5v3h-2v2h-4a1 1 0 0 0 -1 1v16a1 1 0 0 0 1 1h14a1 1 0 0 0 1-1v-16a1 1 0 0 0 -1-1zm-11.61-7 2.33-7h4.56l2.33 7zm10.61 23h-12v-6h12zm0-8h-12v-6h12z"/><path d="m30 47h4v2h-4z"/><path d="m30 55h4v2h-4z"/><path d="m18 30h-11a5 5 0 0 0 -5 5v26a1 1 0 0 0 1 1h3a1 1 0 0 0 .97-.76l.81-3.24h9.44l.81 3.24a1 1 0 0 0 .97.76h3a1 1 0 0 0 1-1v-26a5 5 0 0 0 -5-5zm-12.78 30h-1.22v-2h1.72zm15.78 0h-1.22l-.5-2h1.72zm0-4h-17v-2h17zm0-4h-17v-2h17zm0-4h-17v-1a3.009 3.009 0 0 1 3-3h11a3.009 3.009 0 0 1 3 3zm-13-7.5a1.5 1.5 0 0 1 1.5-1.5h6a1.5 1.5 0 0 1 0 3h-6a1.5 1.5 0 0 1 -1.5-1.5zm13 2.53a4.922 4.922 0 0 0 -2.38-.97 3.556 3.556 0 0 0 .38-1.56 3.5 3.5 0 0 0 -3.5-3.5h-6a3.5 3.5 0 0 0 -3.5 3.5 3.556 3.556 0 0 0 .38 1.56 4.922 4.922 0 0 0 -2.38.97v-8.03a3.009 3.009 0 0 1 3-3h11a3.009 3.009 0 0 1 3 3z"/><path d="m57 30h-11a5 5 0 0 0 -5 5v26a1 1 0 0 0 1 1h3a1 1 0 0 0 .97-.76l.81-3.24h9.44l.81 3.24a1 1 0 0 0 .97.76h3a1 1 0 0 0 1-1v-26a5 5 0 0 0 -5-5zm-12.78 30h-1.22v-2h1.72zm15.78 0h-1.22l-.5-2h1.72zm0-4h-17v-2h17zm0-4h-17v-2h17zm0-4h-17v-1a3.009 3.009 0 0 1 3-3h11a3.009 3.009 0 0 1 3 3zm-13-7.5a1.5 1.5 0 0 1 1.5-1.5h6a1.5 1.5 0 0 1 0 3h-6a1.5 1.5 0 0 1 -1.5-1.5zm13 2.53a4.922 4.922 0 0 0 -2.38-.97 3.556 3.556 0 0 0 .38-1.56 3.5 3.5 0 0 0 -3.5-3.5h-6a3.5 3.5 0 0 0 -3.5 3.5 3.556 3.556 0 0 0 .38 1.56 4.922 4.922 0 0 0 -2.38.97v-8.03a3.009 3.009 0 0 1 3-3h11a3.009 3.009 0 0 1 3 3z"/><path d="m56 2h-48a1 1 0 0 0 -1 1v19a1 1 0 0 0 1 1h48a1 1 0 0 0 1-1v-19a1 1 0 0 0 -1-1zm-37.91 19 10.84-6.78 4.45 3.56 1.24-1.56-1.25-1.01 2.86-2.57 2.06 2.07a1.014 1.014 0 0 0 1.42 0l1.63-1.64 5.18.86 7.07 7.07zm19.62-9.7 3.25-2.92 3.13 3.12-2.93-.49a1.011 1.011 0 0 0 -.87.28l-1.29 1.3zm17.29 8.29-13.29-13.3a1.007 1.007 0 0 0 -1.38-.03l-8.55 7.69-2.16-1.73a.993.993 0 0 0 -1.15-.07l-14.16 8.85h-5.31v-17h46z"/><path d="m20 14a4 4 0 1 0 -4-4 4 4 0 0 0 4 4zm0-6a2 2 0 1 1 -2 2 2 2 0 0 1 2-2z"/></g></svg>