<svg height="512.00003pt" viewBox="0 0 512.00003 512.00003" width="512.00003pt" xmlns="http://www.w3.org/2000/svg"><path d="m409.601562 460.800781c0 23.550781-68.78125 42.664063-153.601562 42.664063-4.351562 0-8.617188-.082032-12.800781-.167969-78.847657-1.792969-140.800781-20.140625-140.800781-42.496094 0-18.601562 42.753906-34.390625 102.402343-40.277343h102.398438c59.648437 5.886718 102.402343 21.675781 102.402343 40.277343zm0 0" fill="#d84315"/><path d="m384 460.800781c0 22.355469-61.953125 40.703125-140.800781 42.496094-78.847657-1.792969-140.800781-20.140625-140.800781-42.496094 0-18.601562 42.753906-34.390625 102.402343-40.277343h76.800781c59.644532 5.886718 102.398438 21.675781 102.398438 40.277343zm0 0" fill="#ff5722"/><path d="m341.332031 443.734375c-30.148437-19.699219-51.542969-50.261719-59.730469-85.335937h-51.203124c-8.1875 35.074218-29.582032 65.636718-59.730469 85.335937 0 0 0 17.066406 85.332031 17.066406s85.332031-17.066406 85.332031-17.066406zm0 0" fill="#ff9801"/><path d="m503.464844 221.867188v51.199218c0 51.882813-110.761719 93.867188-247.464844 93.867188-4.265625 0-8.535156 0-12.714844-.085938h-.171875c-130.730469-2.558594-234.578125-43.519531-234.578125-93.78125v-51.199218zm0 0" fill="#d84315"/><path d="m477.867188 221.867188v51.199218c0 50.261719-103.851563 91.222656-234.582032 93.78125h-.171875c-130.730469-2.558594-234.578125-43.519531-234.578125-93.78125v-51.199218zm0 0" fill="#ff5722"/><path d="m503.464844 221.867188c0 51.882812-110.761719 93.867187-247.464844 93.867187-4.265625 0-8.535156 0-12.714844-.085937h-.171875c-130.730469-2.558594-234.578125-43.519532-234.578125-93.78125 0-43.351563 77.394532-79.871094 182.78125-90.539063l4.949219-.511719 149.933594 3.667969c92.074219 13.570313 157.265625 47.617187 157.265625 87.382813zm0 0" fill="#f57c00"/><path d="m477.867188 221.867188c0 50.261718-103.851563 91.222656-234.582032 93.78125h-.171875c-130.730469-2.558594-234.578125-43.519532-234.578125-93.78125 0-43.351563 77.394532-79.871094 182.78125-90.539063l129.28125 3.15625c92.074219 13.570313 157.269532 47.617187 157.269532 87.382813zm0 0" fill="#ff9801"/><path d="m162.132812 8.535156h179.199219c4.714844 0 8.535157 3.820313 8.535157 8.53125v162.132813h-196.265626v-162.132813c0-4.710937 3.820313-8.53125 8.53125-8.53125zm0 0" fill="#00838f"/><path d="m162.132812 8.535156h153.601563c4.710937 0 8.53125 3.820313 8.53125 8.53125v162.132813h-170.664063v-162.132813c0-4.710937 3.820313-8.53125 8.53125-8.53125zm0 0" fill="#00bcd4"/><path d="m392.535156 230.398438v25.601562c0 4.710938-3.824218 8.535156-8.535156 8.535156h-256c-4.710938 0-8.535156-3.824218-8.535156-8.535156v-25.601562l34.050781-17.066407h196.265625zm0 0" fill="#37474f"/><path d="m366.933594 230.398438v25.601562c0 4.710938-3.820313 8.535156-8.535156 8.535156h-230.398438c-4.710938 0-8.535156-3.824218-8.535156-8.535156v-25.601562l34.050781-17.066407h170.664063zm0 0" fill="#607d8b"/><path d="m392.535156 230.398438h-273.070312l32.171875-67.582032 174.933593-.597656 25.515626-.085938zm0 0" fill="#424242"/><path d="m366.933594 230.398438h-247.46875l32.171875-67.582032 174.933593-.597656zm0 0" fill="#9e9e9e"/><path d="m281.601562 196.265625 17.066407 34.132813h-93.867188l17.066407-34.132813zm0 0" fill="#cfd8dc"/><path d="m358.398438 127.734375v-110.667969c0-9.425781-7.640626-17.066406-17.066407-17.066406h-179.199219c-9.425781 0-17.066406 7.640625-17.066406 17.066406v112.214844c-89.496094 16.707031-145.066406 52.128906-145.066406 92.585938v51.199218c0 52.464844 93.867188 94.523438 219.597656 101.394532-4.425781 13.609374-10.992187 26.425781-19.457031 37.964843-29.371094 3.191407-106.273437 14.777344-106.273437 48.375 0 33.59375 81.570312 51.199219 162.132812 51.199219s162.132812-17.585938 162.132812-51.199219-76.902343-45.226562-106.273437-48.375c-8.464844-11.539062-15.03125-24.355469-19.457031-37.964843 125.730468-6.871094 219.597656-48.929688 219.597656-101.394532v-51.199218c0-42.042969-58.878906-78.097657-153.601562-94.132813zm-230.398438 111.199219h256v17.066406h-256zm90.605469-17.066406 8.535156-17.066407h49.1875l8.53125 17.066407zm85.335937 0-14.660156-29.414063c-1.453125-2.90625-4.429688-4.738281-7.679688-4.71875h-59.734374c-3.234376-.003906-6.191407 1.824219-7.636719 4.71875l-14.703125 29.414063h-66.5625l24.074218-50.570313 190.164063-.628906 30.34375 51.199219zm-141.808594-204.800782h179.199219v136.535156h-179.199219zm-17.066406 129.621094v10.753906c-.4375.523438-.8125 1.09375-1.117187 1.707032l-32.164063 67.582031c0 .078125 0 .152343-.074218.230469-.078126.078124-.09375.296874-.144532.445312-.324218.84375-.503906 1.738281-.539062 2.644531 0 .128907-.070313.230469-.070313.347657v25.601562c0 9.425781 7.644531 17.066406 17.070313 17.066406h255.972656c9.425781 0 17.066406-7.640625 17.066406-17.066406v-25.601562c-.023437-.996094-.21875-1.980469-.578125-2.910157-.097656-.246093-.199219-.476562-.308593-.714843-.113282-.238282-.171876-.46875-.300782-.691407l-40.472656-68.265625c-.292969-.484375-.628906-.941406-1.007812-1.367187v-11.382813c81.777343 14.328125 136.535156 45.011719 136.535156 76.800782 0 41.207031-96.007813 85.332031-238.933594 85.332031s-238.933594-44.125-238.933594-85.332031c0-30.335938 51.292969-60.304688 128-75.179688zm155.511719 279.195312.058594.074219c10.105469 13.007813 22.246093 24.289063 35.960937 33.410157 3.921875 2.613281 9.21875 1.554687 11.835938-2.363282 2.613281-3.921875 1.558594-9.222656-2.363282-11.835937-5.957031-3.976563-11.585937-8.417969-16.835937-13.289063 48.859375 7.585938 71.832031 21.019532 71.832031 28.921875 0 11.578125-51.199218 34.132813-145.066406 34.132813s-145.066406-22.554688-145.066406-34.132813c0-7.902343 22.972656-21.375 71.832031-28.921875-5.25 4.871094-10.878906 9.3125-16.835937 13.289063-2.535157 1.691406-3.976563 4.609375-3.78125 7.648437.199218 3.042969 2.003906 5.75 4.738281 7.101563 2.734375 1.351562 5.980469 1.140625 8.515625-.550781 13.714844-9.121094 25.855468-20.402344 35.960937-33.410157l.058594-.074219c11.804687-15.070312 20.570313-32.292968 25.804687-50.707031 6.195313.171875 12.441407.289063 18.773438.289063s12.570312-.117188 18.773438-.289063c5.234374 18.414063 14 35.636719 25.804687 50.707031zm194.355469-152.816406c0 41.207032-96.007813 85.332032-238.933594 85.332032s-238.933594-44.125-238.933594-85.332032v-13.816406c36.617188 38.402344 128.546875 65.015625 238.933594 65.015625s202.316406-26.613281 238.933594-65.007813zm0 0"/><path d="m187.734375 59.734375c2.261719 0 4.433594-.902344 6.03125-2.5l8.535156-8.535156c2.21875-2.140625 3.105469-5.316407 2.324219-8.296875-.777344-2.984375-3.109375-5.316406-6.09375-6.097656-2.984375-.777344-6.15625.109374-8.296875 2.328124l-8.535156 8.535157c-2.4375 2.4375-3.167969 6.109375-1.847657 9.296875 1.320313 3.1875 4.429688 5.269531 7.882813 5.269531zm0 0"/><path d="m232.898438 36.632812-51.199219 51.199219c-2.21875 2.144531-3.105469 5.316407-2.324219 8.300781.777344 2.984376 3.109375 5.3125 6.09375 6.09375s6.15625-.109374 8.296875-2.328124l51.199219-51.199219c2.21875-2.140625 3.109375-5.316407 2.328125-8.296875-.78125-2.984375-3.109375-5.316406-6.09375-6.097656-2.984375-.777344-6.15625.109374-8.300781 2.328124zm0 0"/></svg>