<?xml version="1.0" encoding="UTF-8"?>
<svg width="24px" height="24px" viewBox="0 0 24 24" version="1.1" xmlns="http://www.w3.org/2000/svg" xmlns:xlink="http://www.w3.org/1999/xlink">
  <title>localization</title>
  <desc>Created with Sketch.</desc>
  <g id="localization" stroke="none" stroke-width="1" fill="none" fill-rule="evenodd">
    <path d="M20.6086957,2 C21.9293766,2 23,3.06594686 23,4.38085895 L23,4.38085895 L23,16.2176183 C23,17.5325304 21.9293766,18.5984773 20.6086957,18.5984773 L20.6086957,18.5984773 L14.7710435,18.5983962 L9.63000234,21.9224221 C9.33455143,22.1134078 8.95085649,21.9310139 8.89755033,21.601575 L8.89755033,21.601575 L8.89130435,21.5230434 L8.89130435,18.5983962 L3.39130435,18.5984773 C2.12345066,18.5984773 1.08604997,17.6161007 1.00508648,16.3741605 L1.00508648,16.3741605 L1,16.2176183 L1,4.38085895 C1,3.06594686 2.07062342,2 3.39130435,2 L3.39130435,2 Z M20.6086957,2.95234358 L3.39130435,2.95234358 C2.59889579,2.95234358 1.95652174,3.59191169 1.95652174,4.38085895 L1.95652174,4.38085895 L1.95652174,16.2176183 C1.95652174,17.0065656 2.59889579,17.6461337 3.39130435,17.6461337 L3.39130435,17.6461337 L9.36956522,17.6461337 C9.6337014,17.6461337 9.84782609,17.8593231 9.84782609,18.1223055 L9.84782609,18.1223055 L9.84782609,20.6449826 L14.3699977,17.7229268 C14.4216869,17.6895138 14.4791216,17.6665212 14.5390584,17.6549054 L14.5390584,17.6549054 L14.6304348,17.6461337 L20.6086957,17.6461337 C21.4011042,17.6461337 22.0434783,17.0065656 22.0434783,16.2176183 L22.0434783,16.2176183 L22.0434783,4.38085895 C22.0434783,3.59191169 21.4011042,2.95234358 20.6086957,2.95234358 L20.6086957,2.95234358 Z M12.5217391,4.85703074 L12.5218692,4.88247771 C15.1823777,5.14332907 17.2608696,7.37745611 17.2608696,10.0949204 C17.2608696,12.8123847 15.1823777,15.0465118 12.5218692,15.3073631 L12.5217391,15.3328101 L11.5217391,15.3328101 L11.5212652,15.3114146 C8.84012198,15.0706171 6.73913043,12.8270534 6.73913043,10.0949204 C6.73913043,7.3627874 8.84012198,5.11922378 11.5212652,4.87842626 L11.5217391,4.85703074 L12.5217391,4.85703074 Z M11.5211304,10.6180307 L10.1021468,10.6190782 C10.2046627,12.3772017 10.8128199,13.7799922 11.5215659,14.2289906 L11.5211304,10.6180307 Z M12.5211304,10.6180307 L12.5217208,14.2002981 C13.2118054,13.7225565 13.7974306,12.3413023 13.8978532,10.6190782 L12.5211304,10.6180307 Z M9.14390541,10.6181048 L7.72753698,10.619177 C7.90153229,12.0394713 8.77339292,13.2452198 9.99136581,13.8862059 C9.51488961,13.0399811 9.20985387,11.8911086 9.14390541,10.6181048 Z M14.8560946,10.6181048 C14.7901196,11.8916215 14.4848646,13.0409068 14.0080765,13.8858984 C15.2263067,13.2456351 16.0984377,12.0397159 16.272463,10.619177 L14.8560946,10.6181048 Z M9.99192345,6.30394245 L9.88404958,6.36207441 C8.70904698,7.02373537 7.87750129,8.21945369 7.72199451,9.61810013 L9.14159107,9.61854249 C9.20243549,8.32639184 9.50930112,7.15927394 9.99192345,6.30394245 Z M11.5215659,5.96085028 C10.806487,6.41386056 10.1938025,7.83778414 10.0995201,9.61797567 L11.5211304,9.61803074 L11.5215659,5.96085028 Z M14.0069967,6.30277359 L14.0161247,6.31826388 C14.4941097,7.17227937 14.7979034,8.33358904 14.8584089,9.61854249 L16.2780055,9.61810013 C16.1177344,8.17660316 15.2393661,6.95065906 14.0069967,6.30277359 Z M12.5217208,5.9895427 L12.5211304,9.61803074 L13.9004799,9.61797567 C13.8081056,7.87381221 13.2181001,6.47164209 12.5217208,5.9895427 Z" id="Combined-Shape" fill="#67696F" fill-rule="nonzero"></path>
  </g>
</svg>
