<?xml version="1.0" encoding="iso-8859-1"?>
<!-- Generator: Adobe Illustrator 18.0.0, SVG Export Plug-In . SVG Version: 6.00 Build 0)  -->
<!DOCTYPE svg PUBLIC "-//W3C//DTD SVG 1.1//EN" "http://www.w3.org/Graphics/SVG/1.1/DTD/svg11.dtd">
<svg version="1.1" id="Capa_1" xmlns="http://www.w3.org/2000/svg" xmlns:xlink="http://www.w3.org/1999/xlink" x="0px" y="0px"
	 viewBox="0 0 303.124 303.124" style="enable-background:new 0 0 303.124 303.124;" xml:space="preserve">
<g>
	<path d="M311.771,92.253V6c0-3.313-2.686-6-6-6H6C2.686,0,0,2.687,0,6v86.253c0,19.287,12.629,35.671,30.05,41.34v126.381H6
		c-3.314,0-6,2.686-6,6c0,3.313,2.686,6,6,6h299.771c3.314,0,6-2.687,6-6c0-3.314-2.686-6-6-6h-24.05V133.593
		C299.142,127.924,311.771,111.539,311.771,92.253z M268.3,123.724c-15.302,0-28.082-10.979-30.892-25.471h61.783
		C296.381,112.745,283.601,123.724,268.3,123.724z M118.415,123.724c-15.301,0-28.08-10.979-30.89-25.471h61.78
		C146.495,112.745,133.716,123.724,118.415,123.724z M12,12h287.771v74.253H12V12z M224.246,98.253
		c-2.81,14.492-15.589,25.471-30.89,25.471s-28.08-10.979-30.89-25.471H224.246z M12.58,98.253h61.783
		c-2.81,14.492-15.59,25.471-30.892,25.471C28.17,123.724,15.391,112.745,12.58,98.253z M43.472,135.724
		c15.947,0,29.907-8.637,37.472-21.472c6.599,11.197,18.064,19.188,31.471,21.048v123.978H42.05v-123.59
		C42.523,135.703,42.995,135.724,43.472,135.724z M269.722,259.277H124.415V135.3c13.406-1.86,24.872-9.852,31.471-21.048
		c7.565,12.836,21.524,21.472,37.471,21.472s29.906-8.637,37.471-21.472c7.565,12.835,21.525,21.472,37.473,21.472
		c0.477,0,0.949-0.021,1.422-0.036V259.277z"/>
	<path d="M96.498,222.483c3.313,0,6-2.687,6-6v-40.652c0-3.313-2.687-6-6-6c-3.314,0-6,2.687-6,6v40.652
		C90.498,219.797,93.184,222.483,96.498,222.483z"/>
	<path d="M237.257,164.417H156.88c-3.313,0-6,2.686-6,6v52.421c0,3.313,2.687,6,6,6h80.376c3.314,0,6-2.687,6-6v-52.421
		C243.257,167.104,240.57,164.417,237.257,164.417z M231.257,216.838H162.88v-40.421h68.376V216.838z"/>
</g>
<g>
</g>
<g>
</g>
<g>
</g>
<g>
</g>
<g>
</g>
<g>
</g>
<g>
</g>
<g>
</g>
<g>
</g>
<g>
</g>
<g>
</g>
<g>
</g>
<g>
</g>
<g>
</g>
<g>
</g>
</svg>
