<?xml version="1.0" encoding="iso-8859-1"?>
<!-- Generator: Adobe Illustrator 17.1.0, SVG Export Plug-In . SVG Version: 6.00 Build 0)  -->
<!DOCTYPE svg PUBLIC "-//W3C//DTD SVG 1.1//EN" "http://www.w3.org/Graphics/SVG/1.1/DTD/svg11.dtd">
<svg version="1.1" id="Capa_1" xmlns="http://www.w3.org/2000/svg" xmlns:xlink="http://www.w3.org/1999/xlink" x="0px" y="0px"
	 viewBox="0 0 512 512" style="enable-background:new 0 0 512 512;" xml:space="preserve">
<g>
	<path d="M504,220c-4.418,0-8,3.582-8,8v216c0,22.056-17.944,40-40,40H56c-22.056,0-40-17.944-40-40V228c0-4.418-3.582-8-8-8
		s-8,3.582-8,8v216c0,30.878,25.122,56,56,56h400c30.878,0,56-25.122,56-56V228C512,223.582,508.418,220,504,220z"/>
	<path d="M7.551,205.231l218.09,140.703c9.221,5.949,19.79,8.924,30.359,8.924s21.138-2.975,30.359-8.924l218.089-140.703
		c5.055-3.26,7.849-8.865,7.292-14.626c-1.331-13.756-7.729-26.511-18.018-35.917c-8.363-7.645-18.703-12.513-29.722-14.108V36
		c0-13.234-10.766-24-24-24H72c-13.234,0-24,10.766-24,24v104.58c-11.019,1.595-21.359,6.464-29.722,14.108
		C7.989,164.094,1.59,176.85,0.26,190.606C-0.297,196.367,2.497,201.971,7.551,205.231z M48,156.837V196c0,4.418,3.582,8,8,8
		s8-3.582,8-8V36c0-4.411,3.589-8,8-8h368c4.411,0,8,3.589,8,8v160c0,4.418,3.582,8,8,8s8-3.582,8-8v-39.163
		c16.656,3.483,29.933,17.562,31.778,34.947c-0.001,0.001-0.002,0.001-0.003,0.002l-218.09,140.703
		c-13.174,8.499-30.196,8.499-43.37,0L16.225,191.785c-0.001,0-0.001-0.001-0.002-0.001C18.067,174.398,31.344,160.32,48,156.837z"
		/>
	<path d="M104,100h304c4.418,0,8-3.582,8-8s-3.582-8-8-8H104c-4.418,0-8,3.582-8,8S99.582,100,104,100z"/>
	<path d="M408,132H224c-4.418,0-8,3.582-8,8s3.582,8,8,8h184c4.418,0,8-3.582,8-8S412.418,132,408,132z"/>
	<path d="M104,148h88c4.418,0,8-3.582,8-8s-3.582-8-8-8h-88c-4.418,0-8,3.582-8,8S99.582,148,104,148z"/>
	<path d="M104,196h200c4.418,0,8-3.582,8-8s-3.582-8-8-8H104c-4.418,0-8,3.582-8,8S99.582,196,104,196z"/>
	<path d="M408,180h-72c-4.418,0-8,3.582-8,8s3.582,8,8,8h72c4.418,0,8-3.582,8-8S412.418,180,408,180z"/>
	<path d="M392,228H184c-4.418,0-8,3.582-8,8s3.582,8,8,8h208c4.418,0,8-3.582,8-8S396.418,228,392,228z"/>
	<path d="M152,228h-32c-4.418,0-8,3.582-8,8s3.582,8,8,8h32c4.418,0,8-3.582,8-8S156.418,228,152,228z"/>
	<path d="M304,276h-96c-4.418,0-8,3.582-8,8s3.582,8,8,8h96c4.418,0,8-3.582,8-8S308.418,276,304,276z"/>
</g>
</svg>
