<?xml version="1.0" standalone="no"?>
<!DOCTYPE svg PUBLIC "-//W3C//DTD SVG 20010904//EN"
 "http://www.w3.org/TR/2001/REC-SVG-20010904/DTD/svg10.dtd">
<svg version="1.0" xmlns="http://www.w3.org/2000/svg"
 width="48.000000pt" height="48.000000pt" viewBox="0 0 48.000000 48.000000"
 preserveAspectRatio="xMidYMid meet">
<metadata>
Created by potrace 1.16, written by Peter Selinger 2001-2019
</metadata>
<g transform="translate(0.000000,48.000000) scale(0.100000,-0.100000)"
fill="#000000" stroke="none">
<path d="M65 427 c-3 -7 -4 -87 -3 -177 l3 -165 68 -3 c42 -2 67 1 67 8 0 5
-13 10 -30 10 -16 0 -30 5 -30 10 0 6 14 10 30 10 17 0 30 5 30 10 0 6 -25 10
-55 10 l-55 0 0 136 0 136 95 -4 c82 -3 95 -2 93 12 -4 21 -205 28 -213 7z"/>
</g>
</svg>
