<?xml version="1.0" encoding="iso-8859-1"?>
<!-- Generator: Adobe Illustrator 19.0.0, SVG Export Plug-In . SVG Version: 6.00 Build 0)  -->
<svg version="1.1" id="Capa_1" xmlns="http://www.w3.org/2000/svg" xmlns:xlink="http://www.w3.org/1999/xlink" x="0px" y="0px"
	 viewBox="0 0 512.001 512.001" style="enable-background:new 0 0 512.001 512.001;" xml:space="preserve">
<path style="fill:#E7ECED;" d="M504.464,136.192v280.523c0,0-80.15,88.164-248.464,88.164S7.536,416.715,7.536,416.715V136.192
	l144.269-24.045l16.03-104.195H256h88.164l16.03,104.195L504.464,136.192z"/>
<path style="fill:#CCD1D2;" d="M87.686,448.775V168.252l144.269-24.045l15.14-136.254h-79.259l-16.03,104.195L7.536,136.192v280.523
	c0,0,44.748,49.187,137.54,74.08C106.553,469.463,87.686,448.775,87.686,448.775z"/>
<polygon style="fill:#3F96F5;" points="296.075,312.521 296.075,336.566 256,392.67 215.926,336.566 215.926,312.521 
	231.955,272.445 280.045,272.445 "/>
<polygon style="fill:#FFD311;" points="296.075,224.356 296.075,272.445 280.045,272.445 231.955,272.445 215.926,272.445 
	215.926,224.356 "/>
<polygon style="fill:#3F83F5;" points="247.985,312.521 264.015,272.445 231.955,272.445 215.926,312.521 215.926,336.566 
	256,392.67 272.03,370.228 247.985,336.566 "/>
<rect x="215.922" y="224.352" style="fill:#FDB51E;" width="40.075" height="48.09"/>
<g>
	<path style="fill:#231F20;" d="M496.927,413.236c-5.837,5.773-24.734,23.117-57.141,40.505
		C403.07,473.442,341.38,496.928,256,496.928c-47.633,0-92.649-7.202-133.796-21.407l-4.919,14.249
		c42.734,14.752,89.404,22.231,138.715,22.231c88.512,0,152.674-24.459,190.913-44.978c41.738-22.396,62.273-44.715,63.127-45.654
		l1.96-2.156V288.064h-15.073V413.236z"/>
	<path style="fill:#231F20;" d="M15.073,142.161l25.765-4.294l-2.478-14.869L0,129.392v289.82l1.96,2.156
		c1.329,1.463,33.331,36.134,98.968,62.32l5.585-14c-53.39-21.299-83.745-48.892-91.441-56.464V142.161z"/>
	<path style="fill:#231F20;" d="M366.814,105.193L350.631,0H161.37l-16.183,105.193l-82.789,13.799l2.478,14.867l48.024-8.004
		c2.543,26.036,12.116,50.661,28.073,71.913c17.06,22.723,40.843,40.181,67.417,49.601v32.197h12.435l-12.435,31.086v27.911
		l47.611,66.656l47.612-66.656v-27.911l-12.435-31.086h12.435V247.37c26.57-9.42,50.348-26.874,67.407-49.59
		c15.962-21.255,25.539-45.883,28.082-71.925l97.826,16.305v121.858h15.073V129.392L366.814,105.193z M288.539,333.734L256,379.288
		l-32.538-45.554v-20.178l13.596-33.989h37.886l13.596,33.989V333.734z M288.539,264.494h-65.077v-33.017h65.077V264.494z
		 M358.967,188.728c-14.204,18.914-33.597,33.749-55.355,42.523v-14.849h-95.222v14.85c-21.762-8.776-41.159-23.616-55.364-42.534
		c-14.485-19.292-23.078-41.688-25.205-65.35l30.604-5.101l15.878-103.195h163.397l15.877,103.195l30.604,5.101
		C382.052,147.034,373.457,169.434,358.967,188.728z"/>
</g>
<polygon style="fill:#FFFFFF;" points="184.569,69.828 199.192,73.485 205.78,47.132 239.971,47.132 239.971,32.06 194.011,32.06 
	"/>
<rect x="255.995" y="32.06" style="fill:#231F20;" width="16.03" height="15.073"/>
<path style="fill:#FFFFFF;" d="M456.853,397.747c-4.012,4.912-17.55,19.031-40.554,19.031v15.073
	c35.683,0,53.615-26.282,54.36-27.401l1.266-1.899v-58.386h-15.073V397.747z"/>
<rect x="456.854" y="312.106" style="fill:#231F20;" width="15.073" height="16.03"/>
<g>
	<rect x="239.968" y="240.45" style="fill:#FFFFFF;" width="32.06" height="15.073"/>
	<rect x="248.459" y="296.078" style="fill:#FFFFFF;" width="15.073" height="16.029"/>
</g>
<rect x="248.459" y="328.133" style="fill:#231F20;" width="15.073" height="16.029"/>
<g>
</g>
<g>
</g>
<g>
</g>
<g>
</g>
<g>
</g>
<g>
</g>
<g>
</g>
<g>
</g>
<g>
</g>
<g>
</g>
<g>
</g>
<g>
</g>
<g>
</g>
<g>
</g>
<g>
</g>
</svg>
