<?xml version="1.0" standalone="no"?>
<!DOCTYPE svg PUBLIC "-//W3C//DTD SVG 20010904//EN"
 "http://www.w3.org/TR/2001/REC-SVG-20010904/DTD/svg10.dtd">
<svg version="1.0" xmlns="http://www.w3.org/2000/svg"
 width="48.000000pt" height="48.000000pt" viewBox="0 0 48.000000 48.000000"
 preserveAspectRatio="xMidYMid meet">
<metadata>
Created by potrace 1.16, written by Peter Selinger 2001-2019
</metadata>
<g transform="translate(0.000000,48.000000) scale(0.100000,-0.100000)"
fill="#000000" stroke="none">
<path d="M330 360 c0 -21 -47 -70 -66 -70 -18 0 -18 -9 2 -31 15 -17 15 -20 0
-44 -21 -32 -31 -32 -52 0 -16 24 -16 27 1 45 20 22 21 21 -18 38 -15 6 -33
24 -39 39 -7 16 -13 29 -14 31 -1 2 -23 0 -49 -4 l-48 -7 6 -71 c3 -39 17
-108 32 -153 l26 -83 128 0 128 0 16 43 c27 73 47 163 47 215 l0 49 -50 10
c-44 9 -50 8 -50 -7z"/>
</g>
</svg>
