<svg xmlns="http://www.w3.org/2000/svg" width="200" height="151" viewBox="0 0 200 151">
  <defs>
    <linearGradient id="filter-illustration-a" x1="81.402%" x2="5.726%" y1="37.262%" y2="56.898%">
      <stop offset="0%" stop-color="#44464C"/>
      <stop offset="100%" stop-color="#67696F"/>
    </linearGradient>
    <linearGradient id="filter-illustration-b" x1="79.474%" x2="13.701%" y1="14.68%" y2="89.851%">
      <stop offset="0%" stop-color="#FEFEFE"/>
      <stop offset="98.271%" stop-color="#E8E8E8"/>
    </linearGradient>
  </defs>
  <g fill="none" fill-rule="evenodd">
    <path fill="#F7F8FA" d="M1.2195122,89.7089947 C3.65853659,77.4514991 14.6341463,57.8395062 47.9628547,33.6020726 C86.7665006,15.1757192 112.324926,-0.422556104 143.219007,13.7471174 C184.474388,32.6690359 214.952078,69.7345854 192.261778,99.7852567 C163.551481,137.808718 100.088218,155.385987 40.417813,149.895382 C1.2195122,132.610229 -2.73636669e-12,103.19224 1.2195122,89.7089947 Z"/>
    <g transform="translate(21.642 .551)">
      <path fill="#9EA0A5" d="M98.4881666,95.1885578 C111.598526,107.754269 118.734937,113.320166 119.8974,111.88625 C126.110305,104.222536 127.044442,101.883528 125.977171,98.4954361 C119.91543,79.2522184 110.941903,72.7936481 103.985967,69.8358241 C95.8007684,66.3552891 90.0402665,68.2513251 89.6916852,67.6312385 C79.7956436,66.5289458 87.7544322,58.2671958 84.4557517,56.0626102 C83.4808971,55.4110921 73.1979978,57.0844554 72.0987224,57.7106036 C69.478306,59.203195 76.1790623,65.8686067 67.3825809,65.8686067 C65.1935618,65.8686067 63.254191,66.5793221 54.5057596,69.8358241 C45.6765888,73.1223804 31.440249,79.6855746 25.917195,95.1885578 C23.1383797,102.988577 20.9353648,104.773562 28.1163153,112.825242 C30.048357,114.991554 39.0720715,108.736756 55.187459,94.0608466 L98.4881666,95.1885578 Z"/>
      <path fill="#5B5D62" d="M42.992337,78.1261023 C40.3167363,87.5386015 39.2550193,104.97681 39.3338004,108.007055 C39.423287,111.449072 55.9389913,95.2865961 55.9389913,96.9858087 C55.9389913,109.281315 55.2891808,126.917438 53.9895597,149.89418 C62.593313,149.097665 70.8400143,148.055631 78.7296637,146.768078 C86.6193131,145.480524 94.4994943,143.801253 102.370207,141.730265 C99.8931485,123.531115 98.799712,109.275642 99.089898,98.9638448 C99.1440549,97.0393708 116.163069,116.124339 119.821605,113.67284 C121.871911,112.298978 116.786199,85.5343701 116.163069,83.0291005 C113.724044,73.2231041 105.187459,67.9115226 90.5533126,67.0943563 L77.1386785,76.9003527 L66.1630687,65.8686067 C52.3419305,68.3201058 44.6183533,72.4059377 42.992337,78.1261023 Z"/>
      <path fill="#67696F" d="M77.1386785,146.768078 L102.370207,141.730265 C99.8931485,123.531115 98.799712,109.275642 99.089898,98.9638448 C99.1440549,97.0393708 116.163069,116.124339 119.821605,113.67284 C121.871911,112.298978 116.786199,85.5343701 116.163069,83.0291005 C113.724044,73.2231041 105.187459,67.9115226 90.5533126,67.0943563 L77.1386785,76.9003527 L77.1386785,146.768078 Z"/>
      <path fill="#CCCED3" d="M77.5742423,63.4792655 C84.6005199,63.7098199 95.4313614,54.8368607 99.4601841,37.3701442 C100.946177,30.9277119 100.702875,28.8855023 99.4601841,24.3155836 C97.659005,17.6918589 93.5053238,11.2610229 89.1456781,11.2610229 C86.0504769,11.2610229 72.8222172,11.5167343 69.9901669,12.7115297 C59.6756609,17.0630499 51.5688463,24.4303317 55.2551583,35.9196375 C59.6140043,49.5050624 64.2599249,56.6336423 68.7992043,60.2086226 C71.8093848,62.5793372 74.7726692,63.387337 77.5742423,63.4792655 Z"/>
      <ellipse cx="77.55" cy="54.775" fill="#9EA0A5" rx="3.049" ry="1.839"/>
      <path fill="url(#filter-illustration-a)" d="M93.0660145,16.2124805 C93.0660145,13.6943308 80.5547443,20.5028965 76.2186159,23.8806675 C70.3563694,28.4472588 58.5776504,29.6098059 52.7897306,29.6098059 C47.6555365,29.6098059 49.3528274,19.6852723 49.9128532,19.5838137 C62.8588016,17.2384263 55.2978277,4.94144317 68.6125564,0.964114007 C82.9969435,-3.33273978 90.8233667,8.12553698 95.9428919,8.12553698 C101.504756,8.12553698 103.902154,13.3772472 103.135085,23.8806675 C105.244894,27.6605428 103.422921,30.5053369 97.6691662,32.4150497 C93.6573088,33.7466141 93.0660145,23.3739034 93.0660145,16.2124805 Z"/>
      <path fill="#CCCED3" d="M76.1370251,33.6961014 C76.1370251,30.5284601 66.5932698,32.1122807 58.6401404,36.8637427 C55.4588886,41.6152047 57.0495145,44.782846 53.8682627,51.1181287 C30.0088744,73.291618 28.4182485,74.8754386 14.1026156,90.7136452 C10.9213638,93.8812866 9.56559542,104.419778 12.7468472,106.003599 C36.6062355,113.922702 42.7338815,73.291618 57.0495145,57.4534113 C60.2307662,57.4534113 63.412018,57.4534113 68.1838957,55.8695907 C75.0636854,46.3844827 72.6421731,44.8317809 76.1370251,33.6961014 Z" transform="rotate(-20 43.535 69.532)"/>
      <path fill="#CCCED3" d="M143.801165,36.0763175 C143.801165,32.9086762 134.257409,34.4924969 126.30428,39.2439589 C123.123028,43.9954209 124.713654,47.1630622 121.532402,53.4983448 C97.6730139,75.6718341 96.0823881,77.2556548 81.7667551,93.0938614 C78.5855033,96.2615027 76.8537744,106.799994 80.0350262,108.383815 C103.894414,116.302918 110.398021,75.6718341 124.713654,59.8336275 C127.894906,59.8336275 131.076158,59.8336275 135.848035,58.2498068 C142.727825,48.7646989 140.306313,47.211997 143.801165,36.0763175 Z" transform="scale(-1 1) rotate(-21 0 671.212)"/>
      <g transform="translate(51.385 28.564)">
        <path fill="#67696F" d="M18.8876569,4.16656629 L23.8653253,1.90668358 C24.6827041,1.53559011 25.6191429,1.52868411 26.4419059,1.88768195 L31.417542,4.05871117 C32.2193574,4.40856888 32.5857415,5.34218441 32.2358838,6.14399981 C32.2335689,6.14930528 32.2312249,6.15459801 32.2288519,6.15987778 L30.4519177,10.113492 C30.1128559,10.8678921 29.2504462,11.2344337 28.4719854,10.9550033 L25.6289644,9.93449362 C25.3171145,9.82255432 24.9780133,9.81122292 24.6593863,9.90209424 L20.8439086,10.9902553 C20.0026342,11.2301839 19.126146,10.7426967 18.8862174,9.9014223 C18.877996,9.87259498 18.8705945,9.84354008 18.864022,9.81429271 L17.9970162,5.95618018 C17.8324741,5.22397951 18.204323,4.4768028 18.8876569,4.16656629 Z"/>
        <ellipse cx="11.93" cy="11.879" fill="#67696F" rx="11.93" ry="11.879"/>
        <ellipse cx="38.853" cy="11.879" fill="#67696F" rx="11.93" ry="11.879"/>
        <ellipse cx="11.93" cy="11.879" fill="url(#filter-illustration-b)" rx="10.339" ry="10.295"/>
        <ellipse cx="38.853" cy="11.879" fill="url(#filter-illustration-b)" rx="10.339" ry="10.295"/>
      </g>
      <g fill="#FFF" transform="translate(55.667 34.444)">
        <g transform="translate(27.911 .838)">
          <polygon points=".002 7.909 3.856 7.909 3.856 4.027 .002 4.027"/>
          <polygon points="9.361 7.909 13.214 7.909 13.214 2.086 9.361 2.086"/>
          <polygon points="4.681 7.909 8.535 7.909 8.535 .145 4.681 .145"/>
        </g>
        <g transform="translate(.522 .838)">
          <polygon points=".301 7.909 4.155 7.909 4.155 4.027 .301 4.027"/>
          <polygon points="9.66 7.909 13.514 7.909 13.514 2.086 9.66 2.086"/>
          <polygon points="4.981 7.909 8.835 7.909 8.835 .145 4.981 .145"/>
        </g>
      </g>
    </g>
  </g>
</svg>
