<svg height="512" viewBox="0 0 58 60" width="512" xmlns="http://www.w3.org/2000/svg"><g id="Page-1" fill="none" fill-rule="evenodd"><g id="030---Ring" fill-rule="nonzero"><path id="Shape" d="m48 40c.0045604 8.7941532-6.0264225 16.4422448-14.5792229 18.4884013-8.5528004 2.0461566-17.3921144-2.0443921-21.3680475-9.8884412-3.97593303-7.8440492-2.0493614-17.3915296 4.6572704-23.0799601.3585319.3095081.8163542.4798606 1.29.48h11c-7.7319865 0-14 6.2680135-14 14s6.2680135 14 14 14 14-6.2680135 14-14-6.2680135-14-14-14h11c.4736458-.0001394.9314681-.1704919 1.29-.48 4.2621605 3.6012926 6.717617 8.9001019 6.71 14.48z" fill="#ffdc00"/><path id="Shape" d="m12 40c-.0059714 3.9759048 1.6813677 7.7662468 4.6397676 10.4225082s6.9079286 3.9270993 10.8602324 3.4944918c-7.1005043-.7766351-12.477794-6.7741488-12.477794-13.917s5.3772897-13.1403649 12.477794-13.917c-3.9523038-.4326075-7.9018325.8382304-10.8602324 3.4944918s-4.645739 6.4466034-4.6397676 10.4225082z" fill="#fec108"/><path id="Shape" d="m41.29 25.52c-.3585319.3095081-.8163542.4798606-1.29.48h-1.173c5.5804596 5.1015693 7.5998532 13.0291877 5.1401299 20.1788241-2.4597234 7.1496363-8.9291351 12.1568107-16.4671299 12.7451759.5.039.994.076 1.5.076 7.9682385.0031289 15.0912645-4.9678189 17.8371249-12.4479984 2.7458604-7.4801794.5306875-15.8790384-5.5471249-21.0320016z" fill="#fec108"/><path id="Shape" d="m23 9h-12l6-8z" fill="#f5f5f5"/><path id="Shape" d="m29 1-6 8-6-8z" fill="#02a9f4"/><path id="Shape" d="m47 9h-12l6-8z" fill="#f5f5f5"/><path id="Shape" d="m41 1-1.5 2 4.5 6h3z" fill="#cfd8dc"/><path id="Shape" d="m41 1-6 8-6-8z" fill="#02a9f4"/><path id="Shape" d="m26 18h-8c-.5157846-.0022839-1.0116591.1989405-1.38.56l-5.62-9.56h12z" fill="#0377bc"/><path id="Shape" d="m47 9-5.62 9.56c-.3683409-.3610595-.8642154-.5622839-1.38-.56h-8l3-9z" fill="#0377bc"/><path id="Shape" d="m35 9h-12l6-8z" fill="#f5f5f5"/><path id="Shape" d="m35 9-3 9h-6l-3-9z" fill="#02a9f4"/><path id="Shape" d="m32 9-3 9h3l3-9z" fill="#0377bc"/><path id="Shape" d="m42 20v4c-.0087035 1.1009442-.8990558 1.9912965-2 2h-22c-1.1009442-.0087035-1.9912965-.8990558-2-2v-4c.0013798-.5445202.2253847-1.0647895.62-1.44.3683409-.3610595.8642154-.5622839 1.38-.56h22c.5157846-.0022839 1.0116591.1989405 1.38.56.3946153.3752105.6186202.8954798.62 1.44z" fill="#ffeb3a"/><path id="Shape" d="m41.38 18.56c-.3683409-.3610595-.8642154-.5622839-1.38-.56l-3-.0000192c.5157846-.0022647 1.0116591.1989597 1.38.5600192.3946153.3752105.6186202.8954798.62 1.44v4c-.0087035 1.1009442-.8990558 1.9912965-2 2h3c1.1009442-.0087035 1.9912965-.8990558 2-2v-4c-.0013798-.5445202-.2253847-1.0647895-.62-1.44z" fill="#fdd834"/><circle id="Oval" cx="8.5" cy="19.5" fill="#02a9f4" r="2.5"/><g fill="#000"><path id="Shape" d="m49 40c.0047853-5.5423854-2.2985729-10.8364499-6.357-14.611.2309069-.4267961.3534952-.9037571.357-1.389v-4c-.0028471-.5306557-.1482512-1.0507949-.421-1.506l5.283-8.987c.2005001-.34868946.1761823-.78287992-.062-1.107l-6-8c-.007-.008-.017-.011-.024-.019-.1868161-.23895703-.4726885-.3793145-.776-.381h-24c-.3032421.00198043-.588993.14227826-.776.381-.006.008-.017.01-.024.019l-6 8c-.22852724.32752156-.25252561.75600845-.062 1.107l5.283 8.987c-.2727488.4552051-.4181529.9753443-.421 1.506v4c.0035048.4852429.1260931.9622039.357 1.389-6.6831585 6.2347413-8.28943593 16.2068557-3.9020569 24.224805 4.3873791 8.0179494 13.6520353 12.0415469 22.5062091 9.774343 8.8541737-2.2672039 15.0448989-10.2483138 15.0388478-19.388148zm-12-15h-19c-.5522847 0-1-.4477153-1-1v-4c0-.5522847.4477153-1 1-1h22c.5522847 0 1 .4477153 1 1v4c0 .5522847-.4477153 1-1 1zm-8-22.333 4 5.333h-8zm11 14.333h-6.613l2.333-7h9.532l-4.228 7.192c-.3272739-.1241212-.6739913-.1891308-1.024-.192zm-13.28 0-2.333-7h9.226l-2.333 7zm-2.107 0h-6.613c-.3500087.0028692-.6967261.0678788-1.024.192l-4.228-7.192h9.532zm12.387-9 4-5.333 4 5.333zm2-6-4 5.333-4-5.333zm-12 0-4 5.333-4-5.333zm-10 .667 4 5.333h-8zm-6 37.333c.0018333-5.0362513 2.1229459-9.839243 5.844-13.233.3660133.15374.7590092.2329511 1.156.233h3.548c-5.9018332 3.3772372-8.7936136 10.3020664-7.0463238 16.873546 1.7472898 6.5714797 7.6965174 11.1455746 14.4963238 11.1455746s12.749034-4.5740949 14.4963238-11.1455746c1.7472898-6.5714796-1.1444906-13.4963088-7.0463238-16.873546h3.552c.3969908-.0000489.7899867-.07926 1.156-.233 6.0657933 5.5727436 7.5710701 14.5536904 3.6537957 21.7996742-3.9172745 7.2459838-12.2559644 10.9051522-20.2407083 8.8819901-7.9847439-2.0231622-13.5748848-9.2115965-13.5690874-17.4486643zm18-13c7.1797017 0 13 5.8202983 13 13s-5.8202983 13-13 13-13-5.8202983-13-13c.008266-7.1762751 5.8237249-12.991734 13-13z"/><circle id="Oval" cx="29" cy="22" r="1"/><circle id="Oval" cx="21" cy="22" r="1"/><circle id="Oval" cx="37" cy="22" r="1"/><path id="Shape" d="m54 9c0-.55228475-.4477153-1-1-1s-1 .44771525-1 1v2c0 .5522847.4477153 1 1 1s1-.4477153 1-1z"/><path id="Shape" d="m53 18c.5522847 0 1-.4477153 1-1v-2c0-.5522847-.4477153-1-1-1s-1 .4477153-1 1v2c0 .5522847.4477153 1 1 1z"/><path id="Shape" d="m55 14h2c.5522847 0 1-.4477153 1-1s-.4477153-1-1-1h-2c-.5522847 0-1 .4477153-1 1s.4477153 1 1 1z"/><path id="Shape" d="m51 14c.5522847 0 1-.4477153 1-1s-.4477153-1-1-1h-2c-.5522847 0-1 .4477153-1 1s.4477153 1 1 1z"/><path id="Shape" d="m5 19.5c0 1.9329966 1.56700338 3.5 3.5 3.5 1.9329966 0 3.5-1.5670034 3.5-3.5s-1.5670034-3.5-3.5-3.5c-1.93299662 0-3.5 1.5670034-3.5 3.5zm3.5-1.5c.82842712 0 1.5.6715729 1.5 1.5s-.67157288 1.5-1.5 1.5-1.5-.6715729-1.5-1.5.67157288-1.5 1.5-1.5z"/><path id="Shape" d="m5.5 7.5c.26519481-.00005664.51950727-.10545063.707-.293l1.5-1.5c.37897221-.39237889.37355237-1.01608478-.01218142-1.40181858-.3857338-.38573379-1.00943969-.39115363-1.40181858-.01218142l-1.5 1.5c-.28590792.28599425-.37142191.71603662-.21667798 1.08965456s.51928208.61725909.92367798.61734544z"/><path id="Shape" d="m.293 11.707c.39049985.3903819 1.02350015.3903819 1.414 0l1.5-1.5c.37897221-.39237889.37355237-1.01608478-.01218142-1.40181858-.3857338-.38573379-1.00943969-.39115363-1.40181858-.01218142l-1.5 1.5c-.39038194.3904999-.39038194 1.0235001 0 1.414z"/><path id="Shape" d="m4.793 10.207 1.5 1.5c.39237889.3789722 1.01608478.3735524 1.40181858-.0121814.38573379-.3857338.39115363-1.0094397.01218142-1.4018186l-1.5-1.5c-.39237889-.37897221-1.01608478-.37355237-1.40181858.01218142-.38573379.3857338-.39115363 1.00943969-.01218142 1.40181858z"/><path id="Shape" d="m1.793 7.207c.39237889.37897221 1.01608478.37355237 1.40181858-.01218142.38573379-.3857338.39115363-1.00943969.01218142-1.40181858l-1.5-1.5c-.39237889-.37897221-1.01608478-.37355237-1.40181857.01218142-.3857338.3857338-.39115364 1.00943969-.01218143 1.40181858z"/></g></g></g></svg>