<svg id="Layer_2" enable-background="new 0 0 512 512" height="512" viewBox="0 0 512 512" width="512" xmlns="http://www.w3.org/2000/svg"><g><g><path d="m126 66h260v380h-260z" fill="#6e83b7"/></g><g><path d="m386 198h116v248h-116z" fill="#6e83b7"/></g><g><path d="m386 198h10v248h-10z" fill="#466089"/></g><g><circle cx="256" cy="196" fill="#466089" r="100"/></g><g><circle cx="256" cy="196" fill="#d3d3d3" r="90"/></g><g><circle cx="256" cy="196" fill="#466089" r="46"/></g><g><circle cx="444" cy="276" fill="#466089" r="40"/></g><g><circle cx="444" cy="276" fill="#d3d3d3" r="27"/></g><g><circle cx="444" cy="276" fill="#466089" r="10"/></g><g><circle cx="444" cy="378" fill="#466089" r="30"/></g><g><path d="m10 198h116v248h-116z" fill="#6e83b7" transform="matrix(-1 0 0 -1 136 644)"/></g><g><path d="m116 198h10v248h-10z" fill="#466089"/></g><g><circle cx="68" cy="276" fill="#466089" r="40"/></g><g><circle cx="68" cy="276" fill="#d3d3d3" r="27"/></g><g><circle cx="68" cy="276" fill="#466089" r="10"/></g><g><circle cx="68" cy="378" fill="#466089" r="30"/></g><g fill="#edeff1"><path d="m219.36 369.47c-1.91-1.11-2.57-3.55-1.46-5.47 1.11-1.91 3.56-2.56 5.47-1.45 1.91 1.11 2.56 3.55 1.45 5.47-.74 1.28-2.08 1.99-3.46 1.99-.68 0-1.37-.17-2-.54z"/><path d="m287.15 367.97c-1.11-1.91-.46-4.36 1.45-5.47 1.91-1.11 4.36-.46 5.47 1.45 1.11 1.91.46 4.36-1.45 5.47-.63.37-1.32.54-2.01.54-1.37 0-2.72-.71-3.46-1.99z"/><path d="m292.54 388.01c-1.11-1.91-.46-4.36 1.45-5.47 1.91-1.11 4.36-.46 5.47 1.45 1.11 1.91.46 4.36-1.45 5.47-.63.37-1.32.54-2.01.54-1.37 0-2.72-.71-3.46-1.99z"/><path d="m232.53 353.38c-1.11-1.91-.45-4.36 1.46-5.47 1.91-1.11 4.36-.46 5.46 1.46 1.11 1.9.46 4.35-1.45 5.46-.63.37-1.32.54-2 .54-1.38 0-2.72-.71-3.47-1.99z"/><path d="m273.96 354.81c-1.91-1.11-2.57-3.56-1.46-5.47 1.1-1.91 3.55-2.56 5.46-1.46 1.91 1.11 2.57 3.56 1.46 5.47-.74 1.28-2.08 2-3.46 2-.68 0-1.37-.18-2-.54z"/><path d="m251.97 346c0-2.21 1.79-4 4-4 2.21 0 4 1.79 4 4 0 2.21-1.78 4-3.99 4-2.21 0-4-1.79-4.01-4z"/></g><g><circle cx="256" cy="386" fill="#466089" r="30"/></g><g><circle cx="256" cy="370" fill="#ffb0aa" r="7"/></g><path d="m216 390c-.69 0-1.38-.17-2.01-.54-1.91-1.11-2.56-3.56-1.45-5.47 1.11-1.91 3.56-2.56 5.47-1.45 1.91 1.11 2.56 3.56 1.45 5.47-.74 1.28-2.09 1.99-3.46 1.99z" fill="#edeff1"/><g><circle cx="346" cy="106" fill="#466089" r="10"/></g><g><circle cx="166" cy="106" fill="#466089" r="10"/></g><g><circle cx="346" cy="286" fill="#466089" r="10"/></g><g><circle cx="166" cy="286" fill="#466089" r="10"/></g></g></svg>