<?xml version="1.0" encoding="iso-8859-1"?>
<!-- Generator: Adobe Illustrator 19.0.0, SVG Export Plug-In . SVG Version: 6.00 Build 0)  -->
<svg version="1.1" id="Capa_1" xmlns="http://www.w3.org/2000/svg" xmlns:xlink="http://www.w3.org/1999/xlink" x="0px" y="0px"
	 viewBox="0 0 512 512" style="enable-background:new 0 0 512 512;" xml:space="preserve">
<path style="fill:#FBDF97;" d="M411.456,235.069l-1.235,0.151c-4.548-38.248-21.513-72.671-46.751-99.163V49.2V10.039H111.657V49.2
	v86.846v0.01C81.922,167.267,63.671,209.49,63.671,256c0,46.5,18.251,88.733,47.986,119.934v0.01v126.017h251.814V375.934
	c25.238-26.482,42.203-60.916,46.751-99.163l1.235,0.151h36.873v-41.852H411.456z"/>
<g>
	<path style="fill:#FBC640;" d="M411.456,235.069l-1.235,0.151c0.813,6.806,1.235,13.743,1.235,20.78h-47.986
		c0,69.539-56.368,125.907-125.907,125.907S111.647,325.539,111.647,256H63.671c0,46.5,18.251,88.733,47.986,119.934v0.01v126.017
		h251.814V375.934c25.238-26.482,42.203-60.916,46.751-99.163c0.609-5.105,1-10.283,1.156-15.518
		c-0.157,5.234-0.546,10.413-1.156,15.518l1.235,0.151h36.873v-41.852H411.456z"/>
	<path style="fill:#FBC640;" d="M363.471,49.2v86.856c-31.672-33.239-76.375-53.949-125.907-53.949s-94.234,20.71-125.907,53.939
		V49.2H363.471z"/>
</g>
<rect x="111.652" y="462.8" style="fill:#FBDF97;" width="251.814" height="39.161"/>
<path style="fill:#FBF5E4;" d="M237.564,130.083c69.539,0,125.907,56.378,125.907,125.917s-56.368,125.907-125.907,125.907
	S111.647,325.539,111.647,256S168.025,130.083,237.564,130.083z M312.775,301.948c0-15.329-12.418-27.757-27.747-27.757
	c-15.319,0-27.747,12.428-27.747,27.757c0,15.319,12.428,27.747,27.747,27.747C300.357,329.695,312.775,317.267,312.775,301.948z
	 M217.847,301.948c0-15.329-12.428-27.757-27.747-27.757c-15.329,0-27.747,12.428-27.747,27.757
	c0,15.319,12.418,27.747,27.747,27.747C205.419,329.695,217.847,317.267,217.847,301.948z"/>
<g>
	<path style="fill:#FBDF97;" d="M285.027,274.19c15.329,0,27.747,12.428,27.747,27.757c0,15.319-12.418,27.747-27.747,27.747
		c-15.319,0-27.747-12.428-27.747-27.747C257.28,286.618,269.708,274.19,285.027,274.19z"/>
	<path style="fill:#FBDF97;" d="M190.1,274.19c15.319,0,27.747,12.428,27.747,27.757c0,15.319-12.428,27.747-27.747,27.747
		c-15.329,0-27.747-12.428-27.747-27.747C162.353,286.618,174.771,274.19,190.1,274.19z"/>
</g>
<path d="M239.524,265.844c0.17-0.033,0.334-0.08,0.501-0.122c0.151-0.038,0.302-0.071,0.452-0.115
	c0.164-0.049,0.321-0.11,0.481-0.168c0.15-0.053,0.299-0.102,0.447-0.164c0.148-0.061,0.29-0.134,0.434-0.202
	c0.153-0.072,0.307-0.14,0.457-0.22c0.136-0.073,0.264-0.156,0.397-0.234c0.15-0.089,0.301-0.174,0.447-0.272
	c0.141-0.094,0.273-0.199,0.409-0.3c0.128-0.094,0.257-0.183,0.38-0.285c0.22-0.181,0.429-0.372,0.631-0.571
	c0.033-0.032,0.069-0.059,0.102-0.092c0.033-0.033,0.06-0.069,0.092-0.102c0.198-0.204,0.391-0.412,0.57-0.631
	c0.103-0.125,0.194-0.259,0.291-0.389c0.098-0.134,0.202-0.262,0.294-0.401c0.099-0.149,0.186-0.302,0.276-0.454
	c0.077-0.129,0.159-0.256,0.23-0.388c0.081-0.153,0.151-0.309,0.224-0.465c0.066-0.142,0.138-0.281,0.198-0.426
	c0.062-0.15,0.112-0.303,0.167-0.455c0.056-0.158,0.116-0.313,0.166-0.474c0.045-0.151,0.078-0.303,0.116-0.455
	c0.042-0.166,0.088-0.33,0.121-0.499c0.034-0.172,0.054-0.345,0.079-0.518c0.022-0.152,0.05-0.3,0.065-0.454
	c0.031-0.314,0.046-0.629,0.047-0.945c0-0.015,0.002-0.029,0.002-0.044v-79.146c0-5.543-4.494-10.039-10.039-10.039
	c-5.544,0-10.039,4.495-10.039,10.039v54.909l-10.851-10.851c-3.92-3.919-10.277-3.919-14.198,0c-3.92,3.92-3.92,10.277,0,14.198
	l27.988,27.988c0.033,0.033,0.069,0.06,0.102,0.092c0.204,0.198,0.413,0.391,0.631,0.571c0.123,0.101,0.254,0.19,0.38,0.285
	c0.136,0.101,0.268,0.206,0.409,0.3c0.146,0.097,0.297,0.183,0.447,0.272c0.132,0.078,0.261,0.162,0.397,0.234
	c0.15,0.08,0.304,0.148,0.457,0.22c0.145,0.068,0.286,0.141,0.434,0.202c0.148,0.061,0.297,0.11,0.447,0.164
	c0.16,0.057,0.317,0.118,0.481,0.168c0.15,0.045,0.3,0.078,0.452,0.115c0.167,0.042,0.331,0.088,0.501,0.122
	c0.175,0.035,0.35,0.055,0.526,0.08c0.149,0.021,0.294,0.049,0.445,0.064c0.329,0.032,0.66,0.05,0.991,0.05s0.662-0.018,0.991-0.05
	c0.151-0.015,0.296-0.043,0.445-0.064C239.174,265.899,239.35,265.879,239.524,265.844z"/>
<path d="M448.329,225.03h-29.441c-5.864-34.774-21.42-66.671-45.379-92.924V10.039C373.509,4.495,369.015,0,363.471,0H111.657
	c-5.544,0-10.039,4.495-10.039,10.039v122.07c-30.974,33.96-47.986,77.792-47.986,123.89c0,46.103,17.012,89.931,47.986,123.882
	v122.08c0,5.543,4.494,10.039,10.039,10.039h251.814c5.544,0,10.039-4.495,10.039-10.039V379.884
	c23.96-26.245,39.516-58.143,45.379-92.924h29.441c5.544,0,10.039-4.495,10.039-10.039v-41.852
	C458.368,229.526,453.873,225.03,448.329,225.03z M401.108,245.961h-27.971c-5.155-70.296-63.989-125.917-135.574-125.917
	c-71.59,0-130.428,55.621-135.584,125.917H74.024c2.333-38.559,18.062-74.809,44.901-102.981c0.025-0.027,0.046-0.056,0.071-0.083
	c31.234-32.728,73.337-50.75,118.568-50.75c45.269,0,87.402,18.053,118.638,50.834c24.625,25.85,39.858,58.156,44.052,93.43
	C400.631,239.57,400.914,242.762,401.108,245.961z M353.431,256c0,63.89-51.978,115.868-115.868,115.868
	c-63.895,0-115.878-51.978-115.878-115.868c0-63.895,51.983-115.878,115.878-115.878C301.453,140.122,353.431,192.104,353.431,256z
	 M353.431,113.1c-32.629-26.607-72.996-41.032-115.868-41.032c-42.87,0-83.237,14.423-115.868,41.027V59.239h231.736V113.1z
	 M353.431,20.078v19.084H121.695V20.078H353.431z M121.696,491.922v-19.084h172.858c5.544,0,10.039-4.495,10.039-10.039
	c0-5.543-4.494-10.039-10.039-10.039H121.696V398.9c32.629,26.607,72.996,41.032,115.868,41.032
	c42.869,0,83.235-14.428,115.868-41.041v93.032H121.696z M356.202,369.008c-31.243,32.788-73.376,50.845-118.639,50.845
	c-45.228,0-87.326-18.022-118.554-50.747c-0.03-0.032-0.055-0.067-0.085-0.099c-26.839-28.161-42.567-64.407-44.9-102.968h27.955
	c5.156,70.291,63.994,125.907,135.584,125.907c71.584,0,130.419-55.616,135.574-125.907h27.97c-0.195,3.196-0.478,6.386-0.855,9.547
	C396.058,310.866,380.826,343.171,356.202,369.008z M438.29,266.882h-17.117c0.213-3.627,0.322-7.263,0.322-10.882
	c0-3.623-0.109-7.262-0.322-10.892h17.117V266.882z"/>
<path d="M190.1,264.152c-20.836,0-37.786,16.956-37.786,37.795c0,20.836,16.951,37.787,37.786,37.787
	c20.835,0,37.786-16.952,37.786-37.787C227.885,281.107,210.935,264.152,190.1,264.152z M190.1,319.656
	c-9.765,0-17.708-7.944-17.708-17.71c0-6.041,3.043-11.38,7.67-14.579v14.579c0,5.543,4.494,10.039,10.039,10.039
	s10.039-4.495,10.039-10.039v-14.579c4.627,3.2,7.67,8.538,7.67,14.579C207.808,311.712,199.864,319.656,190.1,319.656z"/>
<path d="M285.027,264.152c-20.836,0-37.786,16.956-37.786,37.795c0,20.836,16.951,37.787,37.786,37.787
	c20.835,0,37.786-16.952,37.786-37.787C322.812,281.107,305.862,264.152,285.027,264.152z M285.027,319.656
	c-9.765,0-17.708-7.944-17.708-17.71c0-6.041,3.043-11.38,7.67-14.579v14.579c0,5.543,4.494,10.039,10.039,10.039
	s10.039-4.495,10.039-10.039v-14.579c4.627,3.2,7.67,8.538,7.67,14.579C302.735,311.712,294.791,319.656,285.027,319.656z"/>
<path d="M290.84,230.832c0,5.543,4.494,10.039,10.039,10.039h29.404c5.544,0,10.039-4.495,10.039-10.039
	c0-5.543-4.494-10.039-10.039-10.039h-29.404C295.334,220.793,290.84,225.288,290.84,230.832z"/>
<path d="M184.288,230.832c0-5.543-4.494-10.039-10.039-10.039h-29.404c-5.544,0-10.039,4.495-10.039,10.039
	c0,5.543,4.494,10.039,10.039,10.039h29.404C179.793,240.87,184.288,236.376,184.288,230.832z"/>
<path d="M331.025,452.426c-12.919,0-12.94,20.078,0,20.078C343.944,472.503,343.965,452.426,331.025,452.426z"/>
<g>
</g>
<g>
</g>
<g>
</g>
<g>
</g>
<g>
</g>
<g>
</g>
<g>
</g>
<g>
</g>
<g>
</g>
<g>
</g>
<g>
</g>
<g>
</g>
<g>
</g>
<g>
</g>
<g>
</g>
</svg>
